<?xml version="1.0" encoding="UTF-8" standalone="no"?>
<!-- Created with Inkscape (http://www.inkscape.org/) -->

<svg
   xmlns:dc="http://purl.org/dc/elements/1.1/"
   xmlns:cc="http://creativecommons.org/ns#"
   xmlns:rdf="http://www.w3.org/1999/02/22-rdf-syntax-ns#"
   xmlns:svg="http://www.w3.org/2000/svg"
   xmlns="http://www.w3.org/2000/svg"
   xmlns:sodipodi="http://sodipodi.sourceforge.net/DTD/sodipodi-0.dtd"
   xmlns:inkscape="http://www.inkscape.org/namespaces/inkscape"
   width="127.36917mm"
   height="62.352364mm"
   viewBox="0 0 127.36918 62.352364"
   version="1.1"
   id="svg8"
   inkscape:version="0.92.1 r15371"
   sodipodi:docname="Lattice.svg">
  <defs
     id="defs2">
    <marker
       inkscape:stockid="Arrow1Lend"
       orient="auto"
       refY="0"
       refX="0"
       id="marker5179"
       style="overflow:visible"
       inkscape:isstock="true">
      <path
         id="path5177"
         d="M 0,0 5,-5 -12.5,0 5,5 Z"
         style="fill:#000000;fill-opacity:1;fill-rule:evenodd;stroke:#000000;stroke-width:1.00000003pt;stroke-opacity:1"
         transform="matrix(-0.8,0,0,-0.8,-10,0)"
         inkscape:connector-curvature="0" />
    </marker>
    <marker
       inkscape:isstock="true"
       style="overflow:visible"
       id="marker5103"
       refX="0"
       refY="0"
       orient="auto"
       inkscape:stockid="Arrow1Lstart">
      <path
         transform="matrix(0.8,0,0,0.8,10,0)"
         style="fill:#000000;fill-opacity:1;fill-rule:evenodd;stroke:#000000;stroke-width:1.00000003pt;stroke-opacity:1"
         d="M 0,0 5,-5 -12.5,0 5,5 Z"
         id="path5101"
         inkscape:connector-curvature="0" />
    </marker>
    <marker
       inkscape:isstock="true"
       style="overflow:visible"
       id="marker5033"
       refX="0"
       refY="0"
       orient="auto"
       inkscape:stockid="Arrow1Lend"
       inkscape:collect="always">
      <path
         transform="matrix(-0.8,0,0,-0.8,-10,0)"
         style="fill:#000000;fill-opacity:1;fill-rule:evenodd;stroke:#000000;stroke-width:1.00000003pt;stroke-opacity:1"
         d="M 0,0 5,-5 -12.5,0 5,5 Z"
         id="path5031"
         inkscape:connector-curvature="0" />
    </marker>
    <marker
       inkscape:stockid="Arrow1Lstart"
       orient="auto"
       refY="0"
       refX="0"
       id="marker4969"
       style="overflow:visible"
       inkscape:isstock="true"
       inkscape:collect="always">
      <path
         id="path4967"
         d="M 0,0 5,-5 -12.5,0 5,5 Z"
         style="fill:#000000;fill-opacity:1;fill-rule:evenodd;stroke:#000000;stroke-width:1.00000003pt;stroke-opacity:1"
         transform="matrix(0.8,0,0,0.8,10,0)"
         inkscape:connector-curvature="0" />
    </marker>
    <marker
       inkscape:stockid="Arrow1Lend"
       orient="auto"
       refY="0"
       refX="0"
       id="marker4911"
       style="overflow:visible"
       inkscape:isstock="true"
       inkscape:collect="always">
      <path
         id="path4909"
         d="M 0,0 5,-5 -12.5,0 5,5 Z"
         style="fill:#000000;fill-opacity:1;fill-rule:evenodd;stroke:#000000;stroke-width:1.00000003pt;stroke-opacity:1"
         transform="matrix(-0.8,0,0,-0.8,-10,0)"
         inkscape:connector-curvature="0" />
    </marker>
    <marker
       inkscape:isstock="true"
       style="overflow:visible"
       id="marker4871"
       refX="0"
       refY="0"
       orient="auto"
       inkscape:stockid="Arrow1Lstart"
       inkscape:collect="always">
      <path
         transform="matrix(0.8,0,0,0.8,10,0)"
         style="fill:#000000;fill-opacity:1;fill-rule:evenodd;stroke:#000000;stroke-width:1.00000003pt;stroke-opacity:1"
         d="M 0,0 5,-5 -12.5,0 5,5 Z"
         id="path4869"
         inkscape:connector-curvature="0" />
    </marker>
    <marker
       inkscape:isstock="true"
       style="overflow:visible"
       id="marker4831"
       refX="0"
       refY="0"
       orient="auto"
       inkscape:stockid="Arrow1Lend">
      <path
         transform="matrix(-0.8,0,0,-0.8,-10,0)"
         style="fill:#000000;fill-opacity:1;fill-rule:evenodd;stroke:#000000;stroke-width:1.00000003pt;stroke-opacity:1"
         d="M 0,0 5,-5 -12.5,0 5,5 Z"
         id="path4829"
         inkscape:connector-curvature="0" />
    </marker>
    <marker
       inkscape:stockid="Arrow1Lend"
       orient="auto"
       refY="0"
       refX="0"
       id="Arrow1Lend"
       style="overflow:visible"
       inkscape:isstock="true"
       inkscape:collect="always">
      <path
         id="path4512"
         d="M 0,0 5,-5 -12.5,0 5,5 Z"
         style="fill:#000000;fill-opacity:1;fill-rule:evenodd;stroke:#000000;stroke-width:1.00000003pt;stroke-opacity:1"
         transform="matrix(-0.8,0,0,-0.8,-10,0)"
         inkscape:connector-curvature="0" />
    </marker>
    <marker
       inkscape:stockid="Arrow1Lstart"
       orient="auto"
       refY="0"
       refX="0"
       id="Arrow1Lstart"
       style="overflow:visible"
       inkscape:isstock="true"
       inkscape:collect="always">
      <path
         id="path4509"
         d="M 0,0 5,-5 -12.5,0 5,5 Z"
         style="fill:#000000;fill-opacity:1;fill-rule:evenodd;stroke:#000000;stroke-width:1.00000003pt;stroke-opacity:1"
         transform="matrix(0.8,0,0,0.8,10,0)"
         inkscape:connector-curvature="0" />
    </marker>
    <marker
       inkscape:isstock="true"
       style="overflow:visible"
       id="marker5103-4"
       refX="0"
       refY="0"
       orient="auto"
       inkscape:stockid="Arrow1Lstart">
      <path
         inkscape:connector-curvature="0"
         transform="matrix(0.8,0,0,0.8,10,0)"
         style="fill:#000000;fill-opacity:1;fill-rule:evenodd;stroke:#000000;stroke-width:1.00000003pt;stroke-opacity:1"
         d="M 0,0 5,-5 -12.5,0 5,5 Z"
         id="path5101-5" />
    </marker>
    <marker
       inkscape:stockid="Arrow1Lend"
       orient="auto"
       refY="0"
       refX="0"
       id="marker5179-8"
       style="overflow:visible"
       inkscape:isstock="true">
      <path
         inkscape:connector-curvature="0"
         id="path5177-5"
         d="M 0,0 5,-5 -12.5,0 5,5 Z"
         style="fill:#000000;fill-opacity:1;fill-rule:evenodd;stroke:#000000;stroke-width:1.00000003pt;stroke-opacity:1"
         transform="matrix(-0.8,0,0,-0.8,-10,0)" />
    </marker>
    <marker
       inkscape:isstock="true"
       style="overflow:visible"
       id="marker4871-7"
       refX="0"
       refY="0"
       orient="auto"
       inkscape:stockid="Arrow1Lstart"
       inkscape:collect="always">
      <path
         transform="matrix(0.8,0,0,0.8,10,0)"
         style="fill:#000000;fill-opacity:1;fill-rule:evenodd;stroke:#000000;stroke-width:1.00000003pt;stroke-opacity:1"
         d="M 0,0 5,-5 -12.5,0 5,5 Z"
         id="path4869-9"
         inkscape:connector-curvature="0" />
    </marker>
    <marker
       inkscape:stockid="Arrow1Lend"
       orient="auto"
       refY="0"
       refX="0"
       id="marker4911-3"
       style="overflow:visible"
       inkscape:isstock="true"
       inkscape:collect="always">
      <path
         id="path4909-5"
         d="M 0,0 5,-5 -12.5,0 5,5 Z"
         style="fill:#000000;fill-opacity:1;fill-rule:evenodd;stroke:#000000;stroke-width:1.00000003pt;stroke-opacity:1"
         transform="matrix(-0.8,0,0,-0.8,-10,0)"
         inkscape:connector-curvature="0" />
    </marker>
    <marker
       inkscape:stockid="Arrow1Lstart"
       orient="auto"
       refY="0"
       refX="0"
       id="Arrow1Lstart-4"
       style="overflow:visible"
       inkscape:isstock="true"
       inkscape:collect="always">
      <path
         id="path4509-6"
         d="M 0,0 5,-5 -12.5,0 5,5 Z"
         style="fill:#000000;fill-opacity:1;fill-rule:evenodd;stroke:#000000;stroke-width:1.00000003pt;stroke-opacity:1"
         transform="matrix(0.8,0,0,0.8,10,0)"
         inkscape:connector-curvature="0" />
    </marker>
    <marker
       inkscape:stockid="Arrow1Lend"
       orient="auto"
       refY="0"
       refX="0"
       id="Arrow1Lend-4"
       style="overflow:visible"
       inkscape:isstock="true"
       inkscape:collect="always">
      <path
         id="path4512-6"
         d="M 0,0 5,-5 -12.5,0 5,5 Z"
         style="fill:#000000;fill-opacity:1;fill-rule:evenodd;stroke:#000000;stroke-width:1.00000003pt;stroke-opacity:1"
         transform="matrix(-0.8,0,0,-0.8,-10,0)"
         inkscape:connector-curvature="0" />
    </marker>
    <marker
       inkscape:stockid="Arrow1Lstart"
       orient="auto"
       refY="0"
       refX="0"
       id="marker4969-3"
       style="overflow:visible"
       inkscape:isstock="true"
       inkscape:collect="always">
      <path
         id="path4967-6"
         d="M 0,0 5,-5 -12.5,0 5,5 Z"
         style="fill:#000000;fill-opacity:1;fill-rule:evenodd;stroke:#000000;stroke-width:1.00000003pt;stroke-opacity:1"
         transform="matrix(0.8,0,0,0.8,10,0)"
         inkscape:connector-curvature="0" />
    </marker>
    <marker
       inkscape:isstock="true"
       style="overflow:visible"
       id="marker5033-8"
       refX="0"
       refY="0"
       orient="auto"
       inkscape:stockid="Arrow1Lend"
       inkscape:collect="always">
      <path
         transform="matrix(-0.8,0,0,-0.8,-10,0)"
         style="fill:#000000;fill-opacity:1;fill-rule:evenodd;stroke:#000000;stroke-width:1.00000003pt;stroke-opacity:1"
         d="M 0,0 5,-5 -12.5,0 5,5 Z"
         id="path5031-2"
         inkscape:connector-curvature="0" />
    </marker>
    <marker
       inkscape:isstock="true"
       style="overflow:visible"
       id="marker5103-0"
       refX="0"
       refY="0"
       orient="auto"
       inkscape:stockid="Arrow1Lstart">
      <path
         transform="matrix(0.8,0,0,0.8,10,0)"
         style="fill:#000000;fill-opacity:1;fill-rule:evenodd;stroke:#000000;stroke-width:1.00000003pt;stroke-opacity:1"
         d="M 0,0 5,-5 -12.5,0 5,5 Z"
         id="path5101-4"
         inkscape:connector-curvature="0" />
    </marker>
    <marker
       inkscape:stockid="Arrow1Lend"
       orient="auto"
       refY="0"
       refX="0"
       id="marker5179-9"
       style="overflow:visible"
       inkscape:isstock="true">
      <path
         id="path5177-50"
         d="M 0,0 5,-5 -12.5,0 5,5 Z"
         style="fill:#000000;fill-opacity:1;fill-rule:evenodd;stroke:#000000;stroke-width:1.00000003pt;stroke-opacity:1"
         transform="matrix(-0.8,0,0,-0.8,-10,0)"
         inkscape:connector-curvature="0" />
    </marker>
  </defs>
  <sodipodi:namedview
     id="base"
     pagecolor="#ffffff"
     bordercolor="#666666"
     borderopacity="1.0"
     inkscape:pageopacity="0.0"
     inkscape:pageshadow="2"
     inkscape:zoom="1.9539294"
     inkscape:cx="274.66811"
     inkscape:cy="190.37407"
     inkscape:document-units="mm"
     inkscape:current-layer="layer1"
     showgrid="false"
     inkscape:window-width="2160"
     inkscape:window-height="1346"
     inkscape:window-x="-11"
     inkscape:window-y="-11"
     inkscape:window-maximized="1"
     fit-margin-top="0"
     fit-margin-left="0"
     fit-margin-right="0"
     fit-margin-bottom="0" />
  <metadata
     id="metadata5">
    <rdf:RDF>
      <cc:Work
         rdf:about="">
        <dc:format>image/svg+xml</dc:format>
        <dc:type
           rdf:resource="http://purl.org/dc/dcmitype/StillImage" />
        <dc:title></dc:title>
      </cc:Work>
    </rdf:RDF>
  </metadata>
  <g
     inkscape:label="レイヤー 1"
     inkscape:groupmode="layer"
     id="layer1"
     transform="translate(-17.437048,-17.158402)">
    <path
       style="stroke-width:0.0016181"
       inkscape:connector-curvature="0"
       d="m 70.90465,43.022352 c 0,-0.10776 0,-0.11666 -0.103169,-0.11666 -0.27812,0.287051 -0.672855,0.287051 -0.816397,0.287051 v 0.139156 c 0.0897,0 0.354365,0 0.58763,-0.116661 v 2.323593 c 0,0.161487 -0.01345,0.215303 -0.417163,0.215303 h -0.143557 v 0.139059 c 0.157003,-0.01344 0.547273,-0.01344 0.726704,-0.01344 0.179399,0 0.569668,0 0.726673,0.01344 v -0.139059 h -0.143557 c -0.403717,0 -0.417163,-0.04935 -0.417163,-0.215303 v -2.51647"
       id="path4" />
    <path
       style="stroke-width:0.00161648"
       inkscape:connector-curvature="0"
       d="m 46.21672,20.283325 0.474988,-0.461554 c 0.699081,-0.618401 0.967966,-0.860454 0.967966,-1.308542 0,-0.510809 -0.403311,-0.869345 -0.950023,-0.869345 -0.506396,0 -0.838001,0.412203 -0.838001,0.81115 0,0.25088 0.224061,0.25088 0.237526,0.25088 0.07618,0 0.233,-0.05366 0.233,-0.237462 0,-0.116544 -0.08065,-0.233097 -0.237495,-0.233097 -0.03585,0 -0.04481,0 -0.05826,0.0046 0.103054,-0.291291 0.345053,-0.457142 0.604969,-0.457142 0.407788,0 0.600475,0.363062 0.600475,0.730491 0,0.358534 -0.224063,0.712544 -0.470511,0.990368 l -0.860406,0.958979 c -0.0493,0.04931 -0.0493,0.05828 -0.0493,0.165817 h 1.662553 l 0.125473,-0.779724 h -0.112035 c -0.02242,0.134427 -0.05377,0.331604 -0.09857,0.398817 -0.03138,0.03583 -0.327143,0.03583 -0.425717,0.03583 h -0.806617"
       id="path6" />
    <path
       style="stroke-width:0.0016181"
       inkscape:connector-curvature="0"
       d="m 22.473657,44.264906 c 0.367956,-0.1212 0.628147,-0.435108 0.628147,-0.789473 0,-0.367956 -0.394817,-0.619085 -0.825394,-0.619085 -0.453116,0 -0.794034,0.269091 -0.794034,0.610024 0,0.148056 0.09869,0.23333 0.228785,0.23333 0.13906,0 0.228766,-0.09871 0.228766,-0.228799 0,-0.224269 -0.21084,-0.224269 -0.27812,-0.224269 0.139059,-0.2199 0.435125,-0.278151 0.596642,-0.278151 0.183817,0 0.430577,0.09871 0.430577,0.50242 0,0.05389 -0.0089,0.313911 -0.12556,0.51132 -0.134628,0.215369 -0.287052,0.228799 -0.399187,0.23333 -0.03594,0.0046 -0.143603,0.01343 -0.174997,0.01343 -0.0359,0.0046 -0.06727,0.0089 -0.06727,0.05389 0,0.04931 0.03138,0.04931 0.107645,0.04931 h 0.197408 c 0.367795,0 0.533812,0.30501 0.533812,0.744618 0,0.610057 -0.309543,0.740136 -0.506952,0.740136 -0.192861,0 -0.529313,-0.07626 -0.686317,-0.340918 0.157004,0.02243 0.296064,-0.07625 0.296064,-0.246713 0,-0.161469 -0.121097,-0.251209 -0.25121,-0.251209 -0.107658,0 -0.251175,0.06281 -0.251175,0.260191 0,0.408198 0.41716,0.704246 0.906069,0.704246 0.547242,0 0.955489,-0.408183 0.955489,-0.865733 0,-0.367844 -0.282521,-0.717727 -0.749181,-0.811882"
       id="path8" />
    <path
       style="stroke-width:0.0016181"
       inkscape:connector-curvature="0"
       d="m 46.981462,69.995156 v 0.390267 c 0,0.161473 -0.0089,0.210823 -0.340933,0.210823 h -0.09418 v 0.13906 c 0.183978,-0.01344 0.417146,-0.01344 0.605655,-0.01344 0.188348,0 0.426046,0 0.610025,0.01344 v -0.13906 h -0.09418 c -0.332035,0 -0.340935,-0.04935 -0.340935,-0.210823 v -0.390267 h 0.448538 v -0.139059 h -0.448538 v -2.040976 c 0,-0.08981 0,-0.11666 -0.07184,-0.11666 -0.0403,0 -0.05372,0 -0.08964,0.05389 L 45.788275,69.8561 v 0.13906 z m 0.02702,-0.139059 h -1.094484 l 1.094484,-1.673182 z"
       id="path10" />
    <path
       style="stroke-width:0.00161648"
       inkscape:connector-curvature="0"
       d="m 68.421587,19.982047 c 0,-0.533262 -0.367427,-0.981335 -0.851401,-0.981335 -0.215154,0 -0.407839,0.07162 -0.569164,0.228408 v -0.873708 c 0.08972,0.02683 0.237622,0.05819 0.381006,0.05819 0.55122,0 0.864817,-0.407838 0.864817,-0.466031 0,-0.02683 -0.01342,-0.0493 -0.04478,-0.0493 -0.0046,0 -0.01341,0 -0.03589,0.01342 -0.08955,0.0404 -0.309233,0.129965 -0.609415,0.129965 -0.179266,0 -0.385369,-0.03136 -0.595996,-0.125435 -0.03588,-0.01342 -0.04478,-0.01342 -0.05383,-0.01342 -0.04478,0 -0.04478,0.03589 -0.04478,0.107499 v 1.326486 c 0,0.08063 0,0.11648 0.06272,0.11648 0.03136,0 0.04042,-0.01346 0.05819,-0.04034 0.0493,-0.07162 0.215153,-0.313597 0.578215,-0.313597 0.232936,0 0.344959,0.206102 0.380844,0.286733 0.07177,0.165817 0.08066,0.340576 0.08066,0.56462 0,0.156864 0,0.425718 -0.107501,0.61394 -0.107652,0.174759 -0.273347,0.291274 -0.47961,0.291274 -0.327015,0 -0.58242,-0.237494 -0.658717,-0.501902 0.01342,0.0044 0.02699,0.0089 0.0763,0.0089 0.147746,0 0.224045,-0.112033 0.224045,-0.21958 0,-0.107551 -0.0763,-0.219568 -0.224045,-0.219568 -0.06288,0 -0.219679,0.03138 -0.219679,0.237492 0,0.385388 0.309233,0.82006 0.811151,0.82006 0.519861,0 0.97684,-0.430178 0.97684,-0.999309"
       id="path12" />
    <path
       style="stroke-width:0.00161648"
       inkscape:connector-curvature="0"
       d="m 25.801043,19.177613 v -0.107499 c 0,-1.133802 0.555746,-1.295126 0.784316,-1.295126 0.107499,0 0.295656,0.02684 0.394262,0.179267 -0.06725,0 -0.246352,0 -0.246352,0.201576 0,0.139017 0.1075,0.206264 0.206101,0.206264 0.07162,0 0.206101,-0.0404 0.206101,-0.215155 0,-0.26882 -0.197211,-0.483975 -0.569163,-0.483975 -0.573528,0 -1.178578,0.578055 -1.178578,1.56844 0,1.196489 0.519861,1.514645 0.93659,1.514645 0.497393,0 0.923173,-0.421207 0.923173,-1.012742 0,-0.569134 -0.398785,-0.99926 -0.896177,-0.99926 -0.304707,0 -0.470559,0.228408 -0.560273,0.44356 z m 0.533277,1.442971 c -0.282238,0 -0.416729,-0.268868 -0.443563,-0.336082 -0.08066,-0.210612 -0.08066,-0.569133 -0.08066,-0.649779 0,-0.349531 0.143382,-0.797701 0.546694,-0.797701 0.07162,0 0.277873,0 0.416729,0.27789 0.08066,0.165785 0.08066,0.39434 0.08066,0.613908 0,0.21512 0,0.439164 -0.07614,0.60049 -0.134491,0.26887 -0.340593,0.291274 -0.443725,0.291274"
       id="path14" />
    <path
       style="stroke-width:0.0016181"
       inkscape:connector-curvature="0"
       d="m 27.297092,67.64571 c 0.0403,-0.05372 0.0403,-0.06278 0.0403,-0.156956 H 26.24744 c -0.547242,0 -0.556304,-0.05825 -0.574265,-0.143525 h -0.112133 l -0.147896,0.924098 h 0.111968 c 0.01359,-0.07184 0.05389,-0.354525 0.112299,-0.408247 0.03139,-0.02686 0.381224,-0.02686 0.439477,-0.02686 h 0.928628 c -0.04935,0.07169 -0.403716,0.560672 -0.502421,0.708729 -0.403715,0.605509 -0.551771,1.229028 -0.551771,1.686576 0,0.04483 0,0.246698 0.206306,0.246698 0.206471,0 0.206471,-0.201858 0.206471,-0.246698 v -0.228764 c 0,-0.24673 0.01343,-0.49344 0.04935,-0.735687 0.0178,-0.103157 0.08059,-0.488957 0.277989,-0.767109 l 0.605654,-0.852255"
       id="path16" />
    <path
       style="stroke-width:0.0016181"
       inkscape:connector-curvature="0"
       d="m 67.1107,68.282756 c -0.20647,-0.134626 -0.224269,-0.287051 -0.224269,-0.363425 0,-0.273621 0.291581,-0.461968 0.610027,-0.461968 0.327501,0 0.614553,0.23333 0.614553,0.556303 0,0.25566 -0.174918,0.470868 -0.44417,0.627985 z m 0.654846,0.426208 c 0.322973,-0.166018 0.542873,-0.399348 0.542873,-0.695298 0,-0.412778 -0.399346,-0.668437 -0.807431,-0.668437 -0.448701,0 -0.811965,0.331873 -0.811965,0.74918 0,0.08074 0.0089,0.28252 0.197408,0.49336 0.04936,0.05389 0.215207,0.166017 0.327344,0.242245 -0.26019,0.130079 -0.645947,0.381273 -0.645947,0.825361 0,0.475495 0.457598,0.776025 0.92863,0.776025 0.506786,0 0.932993,-0.372311 0.932993,-0.85227 0,-0.161486 -0.04935,-0.363344 -0.219737,-0.551757 -0.08527,-0.09421 -0.157115,-0.139059 -0.444168,-0.318409 z m -0.448539,0.188331 0.551772,0.349881 c 0.125574,0.08524 0.336407,0.219787 0.336407,0.493425 0,0.331969 -0.336407,0.565202 -0.704198,0.565202 -0.385919,0 -0.70889,-0.278119 -0.70889,-0.650428 0,-0.260159 0.143688,-0.547242 0.524909,-0.75808"
       id="path18" />
    <path
       style="stroke-width:0.0016181"
       inkscape:connector-curvature="0"
       d="m 114.86035,17.304966 c -0.0404,-0.05384 -0.0449,-0.0583 -0.13008,-0.0583 h -0.76257 v 0.13906 h 0.13008 c 0.0673,0 0.157,0.0045 0.22428,0.0089 0.10318,0.01346 0.10765,0.01794 0.10765,0.10317 v 2.34157 c 0,0.121111 0,0.331938 -0.46201,0.331938 v 0.13906 c 0.157,-0.0045 0.37679,-0.01345 0.52482,-0.01345 0.14803,0 0.36783,0.0089 0.52485,0.01345 v -0.13906 c -0.46205,0 -0.46205,-0.210823 -0.46205,-0.331938 v -2.332594 c 0.0224,0.02243 0.027,0.02693 0.0449,0.05382 l 1.8302,2.691467 c 0.0404,0.05382 0.0449,0.0583 0.0762,0.0583 0.0628,0 0.0628,-0.03141 0.0628,-0.116635 v -2.476115 c 0,-0.121136 0,-0.331938 0.46202,-0.331938 v -0.139038 c -0.15699,0.0045 -0.37679,0.01345 -0.52483,0.01345 -0.14802,0 -0.36785,-0.0089 -0.52481,-0.01345 v 0.139058 c 0.46201,0 0.46201,0.210807 0.46201,0.331938 v 1.915395 l -1.58346,-2.32809"
       id="path22" />
    <path
       style="stroke-width:0.0016181"
       inkscape:connector-curvature="0"
       d="m 139.70131,46.042582 c 0,0.161471 -0.009,0.210823 -0.35436,0.210823 h -0.10767 v 0.139059 h 2.58828 l 0.18839,-1.157314 h -0.11212 c -0.11216,0.690799 -0.21531,1.018255 -0.98687,1.018255 h -0.59661 c -0.21083,0 -0.2198,-0.03139 -0.2198,-0.179432 V 44.87627 h 0.40372 c 0.43512,0 0.48447,0.143559 0.48447,0.524849 h 0.11212 v -1.188722 h -0.11212 c 0,0.385772 -0.0494,0.524831 -0.48447,0.524831 h -0.40372 v -1.076571 c 0,-0.14804 0.009,-0.179432 0.2198,-0.179432 h 0.57865 c 0.68634,0 0.80743,0.246712 0.87921,0.870231 h 0.11218 l -0.12562,-1.00929 h -2.52548 v 0.139059 h 0.10767 c 0.3454,0 0.35436,0.04935 0.35436,0.210822 v 2.350535"
       id="path24" />
    <path
       style="stroke-width:0.0016181"
       inkscape:connector-curvature="0"
       d="m 91.411473,43.475791 c 0.08075,-0.255692 0.273636,-0.300529 0.44857,-0.300529 v -0.13906 c -0.134578,0.0089 -0.273638,0.01345 -0.408183,0.01345 -0.130112,0 -0.417194,-0.0089 -0.533829,-0.01345 v 0.13906 c 0.300563,0.0045 0.390271,0.152506 0.390271,0.237731 0,0.02693 -0.01345,0.0628 -0.02243,0.08969 L 90.613015,45.575132 89.89529,43.37712 c -0.0045,-0.01797 -0.01345,-0.04489 -0.01345,-0.06731 0,-0.134545 0.260158,-0.134545 0.376775,-0.134545 v -0.13906 c -0.161471,0.01345 -0.466514,0.01345 -0.636967,0.01345 -0.170465,0 -0.363344,-0.0089 -0.547241,-0.01345 v 0.13906 c 0.255676,0 0.349883,0 0.403717,0.16147 l 0.09867,0.313992 -0.62352,1.924408 -0.722208,-2.206993 c -0.0045,-0.01344 -0.0089,-0.04486 -0.0089,-0.05834 0,-0.134544 0.260158,-0.134544 0.37679,-0.134544 v -0.139057 c -0.161485,0.01345 -0.46653,0.01345 -0.636981,0.01345 -0.170451,0 -0.363344,-0.0089 -0.547241,-0.01345 v 0.13906 c 0.336402,0 0.354363,0.02242 0.408182,0.188379 l 0.897172,2.749752 c 0.01343,0.04038 0.0269,0.08523 0.08523,0.08523 0.06276,0 0.07175,-0.03139 0.08969,-0.08969 l 0.74017,-2.278773 0.744616,2.283237 c 0.01346,0.04038 0.0269,0.08523 0.08524,0.08523 0.0628,0 0.07178,-0.03139 0.08969,-0.08969 l 0.856785,-2.633137"
       id="path26" />
    <path
       style="stroke-width:0.0016181"
       inkscape:connector-curvature="0"
       d="m 116.11865,69.515401 -0.5741,-0.139044 c -0.27819,-0.06727 -0.45311,-0.309509 -0.45311,-0.5697 0,-0.313992 0.24221,-0.58763 0.59211,-0.58763 0.74917,0 0.84772,0.735654 0.87474,0.937511 0.005,0.02693 0.005,0.05384 0.0539,0.05384 0.0582,0 0.0582,-0.02243 0.0582,-0.107658 v -0.901638 c 0,-0.07626 0,-0.107645 -0.0494,-0.107645 -0.0314,0 -0.0359,0.0045 -0.0673,0.05831 l -0.15695,0.255692 c -0.13467,-0.130084 -0.31849,-0.314014 -0.71784,-0.314014 -0.49787,0 -0.87466,0.394735 -0.87466,0.87023 0,0.372309 0.23772,0.69978 0.58761,0.82088 0.0494,0.01796 0.27815,0.07178 0.59207,0.148039 0.1212,0.03139 0.25581,0.0628 0.38138,0.228784 0.0942,0.116634 0.13899,0.264657 0.13899,0.412681 0,0.318491 -0.22426,0.641463 -0.60112,0.641463 -0.13009,0 -0.47087,-0.02243 -0.70869,-0.242245 -0.26016,-0.242198 -0.27361,-0.529298 -0.27811,-0.6908 -0.005,-0.04486 -0.0404,-0.04486 -0.0538,-0.04486 -0.0583,0 -0.0583,0.03141 -0.0583,0.112172 v 0.897122 c 0,0.07626 0,0.107659 0.0494,0.107659 0.0314,0 0.0359,-0.0089 0.0673,-0.0583 0,-0.0045 0.0134,-0.01794 0.16149,-0.255676 0.13904,0.152506 0.42616,0.313977 0.82534,0.313977 0.52492,0 0.88364,-0.43959 0.88364,-0.933031 0,-0.448569 -0.29594,-0.81638 -0.6728,-0.906119"
       id="path28" />
    <path
       style="stroke-width:0.0016181"
       inkscape:connector-curvature="0"
       d="m 134.8602,17.292757 c -0.0405,-0.05384 -0.045,-0.0583 -0.1301,-0.0583 h -0.76261 v 0.13906 h 0.13009 c 0.0673,0 0.15696,0.0045 0.22428,0.0089 0.10323,0.01346 0.1076,0.01794 0.1076,0.103169 v 2.341571 c 0,0.121111 0,0.331937 -0.46196,0.331937 v 0.13906 c 0.15696,-0.0045 0.37669,-0.01345 0.52475,-0.01345 0.14805,0 0.36795,0.0089 0.52491,0.01345 v -0.13906 c -0.46213,0 -0.46213,-0.210822 -0.46213,-0.331937 v -2.332595 c 0.0225,0.02243 0.027,0.02693 0.045,0.05382 l 1.83007,2.691467 c 0.0405,0.05382 0.045,0.0583 0.0764,0.0583 0.0628,0 0.0628,-0.03141 0.0628,-0.116635 V 17.7054 c 0,-0.121136 0,-0.331939 0.46197,-0.331939 v -0.139038 c -0.15696,0.0045 -0.37685,0.01345 -0.52475,0.01345 -0.14806,0 -0.36796,-0.0089 -0.52491,-0.01345 v 0.139058 c 0.46213,0 0.46213,0.210808 0.46213,0.331939 v 1.915394 l -1.58348,-2.328092"
       id="path30" />
    <path
       style="stroke-width:0.0016181"
       inkscape:connector-curvature="0"
       d="m 137.79026,19.948321 c 0,0.16147 -0.009,0.210823 -0.35437,0.210823 h -0.1076 v 0.139058 h 2.58831 l 0.18834,-1.157313 h -0.11213 c -0.11213,0.690799 -0.21537,1.018255 -0.98688,1.018255 h -0.59659 c -0.21084,0 -0.21974,-0.03139 -0.21974,-0.179432 v -1.197703 h 0.40372 c 0.4351,0 0.48446,0.143558 0.48446,0.524848 h 0.11213 v -1.188722 h -0.11213 c 0,0.385772 -0.0494,0.524831 -0.48446,0.524831 h -0.40372 v -1.076571 c 0,-0.14804 0.009,-0.179432 0.21974,-0.179432 h 0.57864 c 0.6864,0 0.80743,0.246713 0.87927,0.870231 h 0.11213 l -0.12556,-1.009289 h -2.52552 v 0.139058 h 0.1076 c 0.34546,0 0.35436,0.04935 0.35436,0.210822 v 2.350536"
       id="path32" />
    <path
       style="stroke-width:0.0016181"
       inkscape:connector-curvature="0"
       d="m 91.022473,17.216736 c -0.04045,-0.05384 -0.04498,-0.0583 -0.130095,-0.0583 h -0.76261 v 0.13906 h 0.130094 c 0.06731,0 0.156957,0.0045 0.224271,0.0089 0.103232,0.01346 0.107607,0.01794 0.107607,0.103169 v 2.341571 c 0,0.121111 0,0.331937 -0.461969,0.331937 v 0.13906 c 0.156956,-0.0045 0.376695,-0.01345 0.52475,-0.01345 0.148057,0 0.367956,0.0089 0.524912,0.01345 v -0.13906 c -0.462129,0 -0.462129,-0.210822 -0.462129,-0.331937 v -2.332595 c 0.0225,0.02243 0.02702,0.02693 0.04498,0.05382 l 1.830074,2.691468 c 0.04045,0.05382 0.04498,0.0583 0.07638,0.0583 0.06278,0 0.06278,-0.03141 0.06278,-0.116636 v -2.476114 c 0,-0.121136 0,-0.331938 0.461968,-0.331938 v -0.139039 c -0.156955,0.0045 -0.376855,0.01345 -0.524749,0.01345 -0.148056,0 -0.367956,-0.0089 -0.524913,-0.01345 v 0.139059 c 0.46213,0 0.46213,0.210807 0.46213,0.331938 v 1.915394 l -1.583473,-2.328092"
       id="path34" />
    <path
       style="stroke-width:0.0016181"
       inkscape:connector-curvature="0"
       d="m 97.420124,17.598026 c 0.08074,-0.255692 0.273621,-0.300529 0.448536,-0.300529 v -0.13906 c -0.134627,0.0089 -0.273623,0.01345 -0.408247,0.01345 -0.130096,0 -0.417147,-0.0089 -0.533811,-0.01345 v 0.13906 c 0.300642,0.0045 0.390285,0.152506 0.390285,0.237731 0,0.02693 -0.01343,0.0628 -0.02251,0.08969 l -0.672802,2.072447 -0.71779,-2.198012 c -0.0044,-0.01797 -0.01343,-0.04489 -0.01343,-0.06731 0,-0.134546 0.26019,-0.134546 0.376855,-0.134546 v -0.13906 c -0.161487,0.01345 -0.466498,0.01345 -0.637046,0.01345 -0.170387,0 -0.363264,-0.0089 -0.547243,-0.01345 v 0.13906 c 0.25566,0 0.349996,0 0.403717,0.161471 l 0.09871,0.313992 -0.623456,1.924408 -0.722319,-2.206993 c -0.0044,-0.01344 -0.0089,-0.04486 -0.0089,-0.05834 0,-0.134545 0.260192,-0.134545 0.376856,-0.134545 v -0.139057 c -0.161486,0.01345 -0.466499,0.01345 -0.637047,0.01345 -0.170386,0 -0.363263,-0.0089 -0.547241,-0.01345 v 0.13906 c 0.336403,0 0.354365,0.02242 0.408247,0.18838 l 0.897075,2.749752 c 0.01343,0.04038 0.02702,0.08523 0.08528,0.08523 0.06278,0 0.07169,-0.03139 0.08964,-0.08969 l 0.740281,-2.278772 0.744488,2.283237 c 0.01359,0.04038 0.02702,0.08523 0.08528,0.08523 0.06278,0 0.07184,-0.03139 0.08981,-0.08969 l 0.856786,-2.633137"
       id="path36" />
    <path
       style="stroke-width:0.0016181"
       inkscape:connector-curvature="0"
       d="m 134.97763,69.457887 -0.5741,-0.139044 c -0.27815,-0.06727 -0.45307,-0.30951 -0.45307,-0.569701 0,-0.313992 0.24223,-0.587629 0.59206,-0.587629 0.74919,0 0.84772,0.735654 0.87475,0.937511 0.005,0.02693 0.005,0.05384 0.0539,0.05384 0.0582,0 0.0582,-0.02243 0.0582,-0.107659 v -0.901637 c 0,-0.07626 0,-0.107646 -0.0494,-0.107646 -0.0314,0 -0.0359,0.0045 -0.0673,0.05831 l -0.15695,0.255693 c -0.13464,-0.130079 -0.31844,-0.314009 -0.7178,-0.314009 -0.49788,0 -0.87458,0.394735 -0.87458,0.870231 0,0.372308 0.2377,0.69978 0.58754,0.820879 0.0494,0.01796 0.27815,0.07178 0.59206,0.148039 0.1212,0.03139 0.25582,0.0628 0.38138,0.228784 0.0942,0.116634 0.139,0.264657 0.139,0.412681 0,0.318491 -0.22427,0.641463 -0.60112,0.641463 -0.1301,0 -0.47088,-0.02243 -0.70873,-0.242245 -0.26019,-0.242197 -0.27363,-0.529297 -0.27815,-0.6908 -0.005,-0.04486 -0.0403,-0.04486 -0.0537,-0.04486 -0.0582,0 -0.0582,0.03141 -0.0582,0.112172 v 0.897123 c 0,0.07626 0,0.107658 0.0492,0.107658 0.0314,0 0.0359,-0.0089 0.0673,-0.0583 0,-0.0045 0.0134,-0.01794 0.16148,-0.255676 0.13916,0.152506 0.42621,0.313977 0.8254,0.313977 0.52491,0 0.88364,-0.43959 0.88364,-0.933031 0,-0.448568 -0.29595,-0.81638 -0.67281,-0.906119"
       id="path38" />
    <path
       style="stroke-width:0.0016181"
       inkscape:connector-curvature="0"
       d="m 136.5124,70.848483 c 0,0.16147 -0.009,0.210823 -0.35436,0.210823 h -0.10761 v 0.139059 h 2.58832 l 0.18834,-1.157314 h -0.11213 c -0.11213,0.690799 -0.21536,1.018255 -0.98688,1.018255 h -0.5966 c -0.21083,0 -0.21973,-0.03139 -0.21973,-0.179432 v -1.197703 h 0.40372 c 0.4351,0 0.48445,0.143558 0.48445,0.524849 h 0.11214 v -1.188722 h -0.11214 c 0,0.385772 -0.0494,0.524831 -0.48445,0.524831 h -0.40372 v -1.076571 c 0,-0.14804 0.009,-0.179432 0.21973,-0.179432 h 0.57864 c 0.6864,0 0.80744,0.246712 0.87928,0.870231 h 0.11213 l -0.12557,-1.00929 h -2.52553 v 0.139059 h 0.10761 c 0.34546,0 0.35436,0.04935 0.35436,0.210822 v 2.350535"
       id="path40" />
    <path
       style="stroke-width:0.0016181"
       inkscape:connector-curvature="0"
       d="m 93.046447,69.486457 -0.5741,-0.139044 c -0.278152,-0.06727 -0.45307,-0.30951 -0.45307,-0.569701 0,-0.313992 0.242232,-0.58763 0.592066,-0.58763 0.749179,0 0.84772,0.735655 0.874743,0.937511 0.0045,0.02693 0.0045,0.05384 0.05389,0.05384 0.05825,0 0.05825,-0.02243 0.05825,-0.107658 v -0.901638 c 0,-0.07626 0,-0.107645 -0.04935,-0.107645 -0.03138,0 -0.03592,0.0045 -0.06731,0.05831 l -0.156956,0.255693 c -0.134626,-0.13008 -0.318441,-0.314009 -0.717787,-0.314009 -0.49789,0 -0.874586,0.394735 -0.874586,0.87023 0,0.372309 0.237701,0.69978 0.587534,0.820879 0.04935,0.01796 0.278152,0.07178 0.592061,0.14804 0.121199,0.03139 0.255825,0.0628 0.381389,0.228784 0.09417,0.116634 0.138995,0.264656 0.138995,0.41268 0,0.318492 -0.22427,0.641464 -0.601124,0.641464 -0.130098,0 -0.47087,-0.02243 -0.708729,-0.242245 -0.260193,-0.242198 -0.27362,-0.529298 -0.27815,-0.6908 -0.0044,-0.04486 -0.0403,-0.04486 -0.05372,-0.04486 -0.05825,0 -0.05825,0.03141 -0.05825,0.112172 v 0.897122 c 0,0.07626 0,0.107659 0.04919,0.107659 0.03138,0 0.03592,-0.0089 0.06731,-0.0583 0,-0.0045 0.01343,-0.01794 0.161485,-0.255676 0.139156,0.152506 0.426207,0.313976 0.825392,0.313976 0.524914,0 0.883648,-0.439589 0.883648,-0.93303 0,-0.448569 -0.295952,-0.816381 -0.672809,-0.906119"
       id="path42" />
    <path
       style="stroke-width:0.0016181"
       inkscape:connector-curvature="0"
       d="m 98.048807,68.602779 c 0.08074,-0.255692 0.27362,-0.300529 0.44854,-0.300529 v -0.13906 c -0.134628,0.0089 -0.273621,0.01345 -0.408248,0.01345 -0.130095,0 -0.417147,-0.0089 -0.533813,-0.01345 v 0.13906 c 0.300644,0.0045 0.390287,0.152506 0.390287,0.237731 0,0.02693 -0.01343,0.0628 -0.0225,0.08969 l -0.672802,2.072447 -0.71779,-2.198012 c -0.0044,-0.01797 -0.01343,-0.04489 -0.01343,-0.06731 0,-0.134546 0.260194,-0.134546 0.376858,-0.134546 v -0.13906 c -0.161489,0.01345 -0.466497,0.01345 -0.637049,0.01345 -0.170387,0 -0.363263,-0.0089 -0.547241,-0.01345 v 0.13906 c 0.25566,0 0.349997,0 0.403716,0.161471 l 0.09871,0.313992 -0.623452,1.924408 -0.722322,-2.206993 c -0.0044,-0.01344 -0.0089,-0.04486 -0.0089,-0.05834 0,-0.134545 0.260189,-0.134545 0.376857,-0.134545 V 68.16319 c -0.161487,0.01345 -0.466501,0.01345 -0.637047,0.01345 -0.170388,0 -0.363264,-0.0089 -0.547241,-0.01345 v 0.13906 c 0.336402,0 0.354364,0.02242 0.408246,0.188379 l 0.897075,2.749752 c 0.01342,0.04038 0.02702,0.08523 0.08528,0.08523 0.06278,0 0.07169,-0.03139 0.08964,-0.08969 l 0.740279,-2.278772 0.744488,2.283237 c 0.01359,0.04038 0.02702,0.08523 0.08528,0.08523 0.06278,0 0.07184,-0.03139 0.08981,-0.08969 l 0.856783,-2.633136"
       id="path44" />
    <path
       style="stroke-width:0.0017675"
       inkscape:connector-curvature="0"
       d="m 18.45145,76.398353 v -0.945931 c 0.276905,0.01323 0.416191,0.04789 0.416191,0.103838 -2.39e-4,0.03496 -0.05635,0.06867 -0.169072,0.09959 v 0.742502 h 0.530359 l 0.18573,-0.254196 c 0.09527,0.101957 0.169432,0.193649 0.22092,0.274128 l -0.05081,0.08413 H 18.69857 v 0.169071 c 0.485092,0.10447 0.728301,0.24257 0.728301,0.41271 -4.75e-4,0.0975 -0.04194,0.14655 -0.125788,0.14655 -0.04603,-1.8e-4 -0.09125,-0.0274 -0.136764,-0.0822 -0.122349,-0.14829 -0.277444,-0.26756 -0.465739,-0.35927 v 0.66489 h -0.247119 v -0.69151 c -0.248058,0.26658 -0.555433,0.49298 -0.923771,0.67831 l -0.06626,-0.0957 c 0.378172,-0.23435 0.681429,-0.51523 0.908333,-0.842951 h -0.842079 l -0.03538,-0.104046 z m -0.435276,2.146312 c -0.01666,0.0276 -0.04131,0.0687 -0.07517,0.12188 -0.03396,0.0514 -0.05821,0.0903 -0.07297,0.11546 l -0.218838,-0.0997 c 0.150209,-0.23264 0.281371,-0.46907 0.393408,-0.7102 h -0.561266 l -0.04429,-0.10405 H 18.0934 c 0.04992,-0.11463 0.106149,-0.25502 0.168052,-0.42247 0.239125,0.0766 0.35908,0.13934 0.35908,0.18676 -3.51e-4,0.0309 -0.06225,0.0533 -0.186748,0.0667 l -0.06849,0.16904 h 0.848214 l 0.172332,-0.21804 c 0.108698,0.0907 0.197448,0.17451 0.265178,0.25077 l -0.04857,0.0713 h -0.393411 c -0.0018,0.004 -0.0038,0.0125 -0.0067,0.0244 -0.0063,0.0249 -0.0095,0.046 -0.011,0.0621 -0.06076,0.25267 -0.155462,0.4787 -0.285099,0.6769 0.268892,0.12982 0.403575,0.24874 0.403575,0.35562 -3.53e-4,0.0858 -0.04303,0.1294 -0.129062,0.1294 -0.03947,-4e-5 -0.07836,-0.0145 -0.11764,-0.0435 -0.103085,-0.0993 -0.199547,-0.17963 -0.289373,-0.24181 -0.255391,0.28301 -0.660289,0.47083 -1.215188,0.56228 l -0.0573,-0.10391 c 0.47748,-0.10934 0.832282,-0.30732 1.06379,-0.59398 -0.178657,-0.10251 -0.361496,-0.187 -0.548866,-0.25503 z m 0.05507,-0.0956 c 0.187142,0.038 0.393008,0.10057 0.616142,0.18653 0.111776,-0.19247 0.195343,-0.41358 0.249936,-0.66366 h -0.622825 c -0.06814,0.15793 -0.148953,0.3174 -0.243253,0.47713 z m 2.563294,-0.12661 c 0.25332,0.33734 0.588509,0.62367 1.0055,0.85899 -0.08754,0.0765 -0.15844,0.16417 -0.214399,0.26294 -0.404087,-0.28709 -0.713136,-0.58732 -0.928277,-0.90204 -0.319988,0.43557 -0.75066,0.75493 -1.292808,0.95732 l -0.06847,-0.0993 c 0.527228,-0.26507 0.933277,-0.62826 1.217616,-1.09105 -0.210757,-0.36703 -0.370452,-0.85338 -0.479382,-1.46004 -0.116916,0.25331 -0.263006,0.48866 -0.439934,0.70513 l -0.0949,-0.0688 c 0.312053,-0.506 0.533964,-1.183441 0.665112,-2.033128 0.282077,0.05882 0.423707,0.116373 0.423707,0.172329 -2.3e-4,0.03942 -0.06389,0.07145 -0.191651,0.09513 -0.05801,0.267832 -0.117863,0.494309 -0.181276,0.678528 h 1.062997 l 0.203422,-0.285075 c 0.117334,0.106553 0.217297,0.210989 0.298321,0.313113 l -0.04433,0.07605 h -0.466144 l -0.0045,0.0553 c -0.05913,0.707383 -0.215813,1.295973 -0.470634,1.764843 z m -0.154852,-0.23077 c 0.189795,-0.44826 0.305018,-0.96085 0.344858,-1.538517 l 0.0045,-0.05084 h -0.815476 c -0.002,0.007 -0.0074,0.02382 -0.01767,0.04903 -0.01365,0.03343 -0.02216,0.05697 -0.02662,0.06881 0.112974,0.606247 0.283524,1.097287 0.510438,1.471447 z m -2.797378,-2.502133 c 0.321555,0.18621 0.483027,0.369621 0.483027,0.548867 -4.2e-5,0.112403 -0.05148,0.168869 -0.154435,0.168869 -0.06503,-5.01e-4 -0.107974,-0.05112 -0.130051,-0.153437 -0.03096,-0.158673 -0.122808,-0.319492 -0.275757,-0.482595 z m 1.208477,0.678304 c 0.13682,-0.212493 0.252063,-0.445643 0.344859,-0.700451 0.222494,0.09555 0.334271,0.170889 0.334271,0.225364 -4.24e-4,0.03942 -0.05837,0.05975 -0.17516,0.05975 -0.0902,0.130789 -0.2305,0.288028 -0.422056,0.470631 l -0.08191,-0.0553"
       id="path46" />
    <path
       style="stroke-width:0.0017675"
       inkscape:connector-curvature="0"
       d="M 23.901419,76.086229 V 75.45647 c 0.303252,-2.83e-4 0.455187,0.03463 0.455187,0.103837 -5.17e-4,0.03802 -0.06421,0.08246 -0.192623,0.13246 v 0.393411 h 1.413122 l 0.181239,-0.221087 c 0.209432,0.21514 0.314988,0.347823 0.314988,0.396865 -1.06e-4,0.02674 -0.02229,0.04457 -0.06687,0.05349 l -0.144281,0.02674 c -0.115273,0.123267 -0.271807,0.256925 -0.470811,0.399709 l -0.08616,-0.073 c 0.121972,-0.163686 0.21735,-0.318641 0.285098,-0.465768 h -3.019289 c -4.05e-4,0.01727 0.0013,0.03538 0.0039,0.05432 0.01281,0.214862 -0.03415,0.407448 -0.142249,0.576498 -0.06251,0.0992 -0.132001,0.14955 -0.209096,0.14955 -0.112626,-2.7e-4 -0.168867,-0.0525 -0.168867,-0.15746 -3.19e-4,-0.0425 0.03195,-0.0969 0.09591,-0.16399 0.158721,-0.165236 0.252187,-0.414278 0.279017,-0.748242 l 0.115036,0.0084 c 0.0054,0.03371 0.01309,0.08845 0.02194,0.163591 z m 0.312124,1.963826 v 1.09612 c -5.53e-4,0.21065 -0.161479,0.31596 -0.48442,0.31596 -0.005,-0.0933 -0.05902,-0.1576 -0.163618,-0.19444 -0.10328,-0.0373 -0.27764,-0.0699 -0.523641,-0.0993 v -0.12591 c 0.292858,0.0319 0.530569,0.0482 0.713047,0.0482 0.123406,-2.9e-4 0.185536,-0.0514 0.185536,-0.15424 v -0.88622 h -1.795964 l -0.05528,-0.117 h 1.838243 v -0.55232 c 0.117014,0.0175 0.201866,0.033 0.254414,0.0464 0.205103,-0.15341 0.39099,-0.327 0.557615,-0.52143 h -1.894329 l -0.05303,-0.10404 h 1.965025 l 0.176805,-0.207468 c 0.213055,0.181758 0.320059,0.293638 0.320059,0.335508 -3.52e-4,0.0226 -0.02277,0.0412 -0.06829,0.0543 l -0.14347,0.0345 c -0.230358,0.17224 -0.467098,0.32474 -0.711615,0.45723 0.03456,0.0216 0.052,0.0419 0.052,0.0597 -3.52e-4,0.0277 -0.0609,0.0582 -0.182689,0.0907 v 0.30704 h 1.266614 l 0.245277,-0.316 c 0.133741,0.12508 0.239444,0.23858 0.315995,0.33898 l -0.05303,0.094 h -1.76125"
       id="path48" />
    <path
       style="stroke-width:0.0017675"
       inkscape:connector-curvature="0"
       d="m 27.647296,77.583695 0.119465,0.0553 c -0.155665,0.42212 -0.246355,0.67418 -0.272496,0.75575 -0.05382,0.16693 -0.08067,0.29192 -0.08067,0.37349 -2.65e-4,0.0695 0.0072,0.14217 0.02173,0.21762 9.2e-4,0.008 0.005,0.026 0.01072,0.0513 0.0039,0.0175 0.0065,0.0311 0.0065,0.0401 -3.19e-4,0.0262 -0.0096,0.0507 -0.02886,0.0723 -0.01936,0.021 -0.0414,0.0322 -0.06645,0.0322 -0.108183,0 -0.198667,-0.10711 -0.272496,-0.32127 -0.08452,-0.2513 -0.126387,-0.55699 -0.126387,-0.9175 -5.53e-4,-0.36937 0.07091,-0.80653 0.212755,-1.311705 0.05741,-0.2039 0.08636,-0.342753 0.08636,-0.416574 -8.9e-5,-0.09332 -0.04315,-0.196518 -0.129438,-0.310314 l 0.08169,-0.08176 c 0.11764,0.07772 0.211588,0.167922 0.281634,0.269656 0.05188,0.07647 0.07824,0.137614 0.07824,0.183285 -4.43e-4,0.06296 -0.02311,0.145247 -0.06929,0.24549 -0.231561,0.525492 -0.346873,0.982602 -0.346873,1.370052 -1.58e-4,0.24702 0.02315,0.44421 0.06948,0.59012 0.114534,-0.23031 0.256324,-0.52902 0.424325,-0.89737 z m 0.983531,-0.66066 c 0.0117,-0.0125 0.162768,-0.14516 0.452958,-0.40012 -0.04006,0.0028 -0.09579,0.0056 -0.16786,0.0056 -0.281634,-5.57e-4 -0.511217,-0.07396 -0.689505,-0.221895 l 0.07722,-0.09513 c 0.114882,0.06365 0.288774,0.09597 0.521644,0.09597 0.282802,-4.73e-4 0.520832,-0.03231 0.713878,-0.09694 0.07354,-0.02215 0.126611,-0.03315 0.159128,-0.03315 0.101567,-1.53e-4 0.176699,0.02396 0.225358,0.07173 0.043,0.03036 0.065,0.06992 0.065,0.116999 -1.93e-4,0.07215 -0.06957,0.108364 -0.208671,0.108364 -0.149602,-2.09e-4 -0.301784,0.03984 -0.457042,0.119228 -0.161744,0.08344 -0.361844,0.225434 -0.601501,0.424304 z m -0.349332,1.16238 c 0.07044,0.20759 0.19006,0.35142 0.358062,0.42997 0.150202,0.0712 0.371936,0.10698 0.665095,0.10698 0.147216,-3.5e-4 0.316137,-0.0148 0.506197,-0.0442 0.04755,-0.0143 0.09733,-0.0209 0.148152,-0.0209 0.07378,-4.7e-4 0.136542,0.0111 0.187356,0.0351 0.05928,0.0259 0.08942,0.0717 0.08942,0.13622 -9e-5,0.061 -0.06247,0.1046 -0.187356,0.1294 -0.124855,0.0244 -0.331919,0.0373 -0.62142,0.0373 -0.420437,-6e-5 -0.734471,-0.0702 -0.943106,-0.21071 -0.190095,-0.13218 -0.297508,-0.31601 -0.323913,-0.55296 l 0.121512,-0.0464"
       id="path50" />
    <path
       style="stroke-width:0.0017675"
       inkscape:connector-curvature="0"
       d="m 33.183818,76.754995 c 0.04875,-10e-5 0.09097,-10e-4 0.126583,-0.004 0.267318,-0.0139 0.504446,-0.0589 0.710237,-0.137336 0.101706,-0.03928 0.159711,-0.05892 0.173127,-0.05892 0.06179,-4.18e-4 0.114534,0.01825 0.157484,0.0546 0.03964,0.03329 0.05995,0.07382 0.05995,0.120486 -2.83e-4,0.0433 -0.04227,0.0809 -0.126819,0.11156 -0.274476,0.0858 -0.563552,0.1294 -0.868517,0.1294 -0.08271,-5e-5 -0.158369,-0.0111 -0.227585,-0.0343 0.0042,0.42686 0.02581,0.86336 0.06401,1.30826 0.446437,0.10906 0.792109,0.23322 1.035565,0.37083 0.20321,0.11505 0.305407,0.2235 0.305407,0.32415 -2.82e-4,0.10056 -0.04646,0.15098 -0.139403,0.15098 -0.049,-2.8e-4 -0.11725,-0.0363 -0.205861,-0.10892 -0.231614,-0.19193 -0.557543,-0.35534 -0.978031,-0.49177 0.0054,0.15894 -0.0014,0.28023 -0.02215,0.36272 -0.02808,0.10725 -0.08374,0.19842 -0.167452,0.27211 -0.109116,0.0894 -0.305762,0.13497 -0.590932,0.13497 -0.244109,-8e-5 -0.441699,-0.0486 -0.593157,-0.1459 -0.153172,-0.0992 -0.229228,-0.23294 -0.229228,-0.40255 -5.53e-4,-0.19355 0.11094,-0.34044 0.33284,-0.44219 0.152676,-0.0682 0.317355,-0.10182 0.493611,-0.10182 0.154002,-2e-5 0.326971,0.0112 0.517985,0.0354 -0.02988,-0.45671 -0.0472,-0.89276 -0.05304,-1.30825 -0.0092,-0.550023 -0.02425,-0.866228 -0.04634,-0.950231 -0.03123,-0.10321 -0.116512,-0.159036 -0.25643,-0.167839 l -0.0067,-0.126053 c 0.08753,-0.01254 0.156936,-0.01908 0.207471,-0.01908 0.264346,-1.39e-4 0.397263,0.08664 0.397263,0.25992 -3.54e-4,0.02507 -0.0047,0.07187 -0.0144,0.14001 -0.03726,0.223204 -0.05548,0.464864 -0.05548,0.724013 z m -0.163585,1.67954 c -0.213141,-0.0485 -0.412394,-0.0724 -0.598653,-0.0724 -0.15464,-2.5e-4 -0.286248,0.028 -0.396255,0.084 -0.117822,0.0599 -0.176204,0.14294 -0.176204,0.24751 -5.53e-4,0.12174 0.06822,0.21372 0.20464,0.27413 0.105258,0.0471 0.239993,0.0708 0.402975,0.0708 0.197659,-4e-5 0.339697,-0.0329 0.424907,-0.0988 0.07771,-0.0572 0.123212,-0.14062 0.136346,-0.25035 0.0014,-0.018 0.0022,-0.10251 0.0022,-0.25482"
       id="path52" />
    <path
       style="stroke-width:0.0017675"
       inkscape:connector-curvature="0"
       d="m 38.05533,78.969375 c 0.269898,-0.0869 0.463441,-0.2026 0.580096,-0.34892 0.106052,-0.13497 0.159252,-0.3088 0.159252,-0.52243 -1.77e-4,-0.23767 -0.09633,-0.42222 -0.289164,-0.55539 -0.150768,-0.10432 -0.325399,-0.15586 -0.525656,-0.15586 -0.262299,-3.3e-4 -0.526893,0.061 -0.794671,0.1829 -0.370116,0.16253 -0.647084,0.38252 -0.832673,0.6598 -0.05197,0.0795 -0.102876,0.11965 -0.154303,0.11965 -0.0813,-4e-5 -0.12161,-0.072 -0.12161,-0.21623 -3.53e-4,-0.0724 0.03889,-0.14783 0.116833,-0.22737 1.131912,-1.13857 1.769982,-1.781327 1.912619,-1.928454 l -0.01114,-0.01769 c -0.546866,0.162281 -0.897893,0.278194 -1.054141,0.347669 -0.05461,0.02577 -0.103754,0.03928 -0.148118,0.03928 -0.08272,-5.44e-4 -0.161196,-0.05084 -0.236315,-0.152615 -0.0624,-0.08455 -0.109757,-0.18667 -0.143698,-0.307235 l 0.10835,-0.05948 c 0.09987,0.138171 0.196724,0.207256 0.289517,0.207256 0.179402,-1.95e-4 0.45584,-0.04778 0.828784,-0.143227 0.186825,-0.05613 0.306309,-0.107528 0.357743,-0.154662 0.02758,-0.01866 0.05179,-0.0273 0.07105,-0.0273 0.06275,-2.37e-4 0.139285,0.04165 0.228008,0.124939 0.06576,0.06574 0.09951,0.119924 0.09951,0.162365 -1.76e-4,0.03594 -0.02439,0.06491 -0.07318,0.08538 -0.05957,0.02187 -0.125496,0.06212 -0.199374,0.120761 -0.07229,0.06449 -0.260707,0.246827 -0.565779,0.545813 -0.313733,0.30771 -0.595826,0.58048 -0.846282,0.81769 l 0.01323,0.0139 c 0.231013,-0.14409 0.453365,-0.24466 0.66582,-0.30278 0.178163,-0.0481 0.37312,-0.0719 0.583983,-0.0719 0.266541,-3.4e-4 0.50215,0.0852 0.70559,0.25585 0.209449,0.17769 0.314262,0.41014 0.314262,0.69677 -5.15e-4,0.35248 -0.150592,0.63059 -0.45142,0.83339 -0.250987,0.17054 -0.558886,0.25585 -0.924584,0.25585 -0.361455,-4.9e-4 -0.623046,-0.0593 -0.785304,-0.17784 -0.07052,-0.0471 -0.125314,-0.10948 -0.166321,-0.18735 -0.03553,-0.0663 -0.0525,-0.13162 -0.0525,-0.19629 0,-0.1177 0.05002,-0.21169 0.150062,-0.28227 0.08819,-0.062 0.200789,-0.0926 0.337417,-0.0926 0.216343,0 0.410591,0.0742 0.582747,0.2227 0.143697,0.12494 0.234547,0.27041 0.271312,0.43649 z m -0.280679,0.0531 c -0.04013,-0.16127 -0.116484,-0.29683 -0.23013,-0.40847 -0.107821,-0.10767 -0.22571,-0.16073 -0.354208,-0.16073 -0.107988,-5.5e-4 -0.188593,0.026 -0.24321,0.078 -0.04295,0.0403 -0.06415,0.0917 -0.06415,0.15405 -5.15e-4,0.10697 0.06346,0.19128 0.190185,0.25237 0.07936,0.0386 0.191774,0.0662 0.336355,0.0826 0.13221,0.0159 0.254522,0.017 0.365168,0.003"
       id="path54" />
    <path
       style="stroke-width:0.0017675"
       inkscape:connector-curvature="0"
       d="m 42.007828,76.30733 v -0.877249 c 0.320449,0.0085 0.481116,0.04782 0.481116,0.117041 -3.53e-4,0.04374 -0.06928,0.09054 -0.208036,0.139146 v 0.621017 h 1.226473 l 0.247628,-0.324952 c 0.104102,0.09026 0.217934,0.207744 0.340069,0.352573 l -0.04401,0.08942 h -2.016195 c -5.17e-4,0.339999 -0.01857,0.630499 -0.05567,0.871369 h 1.338002 l 0.181346,-0.22169 c 0.193542,0.15012 0.290932,0.2481 0.290932,0.29279 -1.77e-4,0.0208 -0.0145,0.0403 -0.04349,0.0581 l -0.121429,0.0738 c -0.02209,1.01724 -0.130441,1.61923 -0.325044,1.80428 -0.104631,0.10419 -0.253991,0.15472 -0.448418,0.15038 -0.0047,-0.0918 -0.07264,-0.15904 -0.2045,-0.20321 -0.08803,-0.0329 -0.279265,-0.0737 -0.575677,-0.12368 v -0.12564 c 0.326635,0.0419 0.592116,0.0637 0.796086,0.0637 0.185942,-4.5e-4 0.300122,-0.0733 0.341482,-0.21967 0.09421,-0.31513 0.144051,-0.79218 0.148648,-1.43203 h -1.395625 c -0.0753,0.47723 -0.221115,0.87921 -0.437634,1.20543 -0.246391,0.36561 -0.618805,0.66329 -1.118303,0.89251 l -0.06858,-0.10809 c 0.620218,-0.36692 1.027628,-0.85085 1.222054,-1.45195 0.09704,-0.30247 0.157662,-0.68223 0.181346,-1.14041 v -0.0866 l 0.0045,-0.0731 c 0.0026,-0.07549 0.0045,-0.150832 0.0045,-0.226172 h -1.471802 l -0.03977,-0.116999 h 1.770157"
       id="path56" />
    <path
       style="stroke-width:0.0017675"
       inkscape:connector-curvature="0"
       d="m 46.201769,76.281325 c 0.09474,-0.218065 0.171271,-0.494211 0.229069,-0.828691 0.311257,0.07201 0.467682,0.13994 0.467682,0.203217 -1.77e-4,0.04401 -0.06911,0.07285 -0.207329,0.08622 -0.08006,0.162016 -0.192658,0.341806 -0.338123,0.539326 h 1.741347 l 0.179578,-0.22535 c 0.201143,0.145372 0.302244,0.240253 0.302244,0.283446 -3.53e-4,0.0202 -0.01609,0.04039 -0.0479,0.06059 l -0.121247,0.07577 v 2.572642 c -5.16e-4,0.26661 -0.167561,0.39829 -0.502679,0.39382 -0.0046,-0.093 -0.06576,-0.15761 -0.184174,-0.19445 -0.09651,-0.0298 -0.261238,-0.0598 -0.494903,-0.0907 v -0.12633 c 0.292346,0.0221 0.536968,0.0337 0.733163,0.0337 0.117013,-4.5e-4 0.175513,-0.0489 0.175513,-0.14674 v -2.532368 h -2.900125 v 3.121098 h -0.273257 v -3.368817 c 0.152889,0.05989 0.262298,0.108364 0.328226,0.143673 z m 0.01556,0.85835 h 0.901252 l 0.168797,-0.20726 c 0.182759,0.14614 0.274493,0.24031 0.274493,0.28163 -5.16e-4,0.0187 -0.01379,0.0378 -0.04135,0.0554 l -0.114716,0.0776 v 1.24018 h -0.247273 v -0.29017 h -1.001293 v 0.35461 h -0.247104 v -1.6511 c 0.09509,0.0352 0.197608,0.0818 0.307193,0.139 z m -0.0601,0.11699 v 0.92338 h 1.001293 v -0.92338 h -1.001296"
       id="path58" />
    <path
       style="stroke-width:0.0017675"
       inkscape:connector-curvature="0"
       d="m 51.067007,76.17604 c 0.09951,0.148394 0.150062,0.279071 0.150062,0.390987 -5.17e-4,0.171868 -0.04172,0.403588 -0.125315,0.693768 -0.08537,0.29284 -0.194779,0.56836 -0.329463,0.82604 -0.127795,0.24998 -0.249219,0.42857 -0.364813,0.53463 -0.113295,0.10447 -0.2372,0.15691 -0.373476,0.15691 -0.09562,-5.3e-4 -0.201318,-0.0618 -0.318503,-0.18535 -0.08095,-0.0811 -0.146527,-0.20611 -0.197608,-0.37532 -0.04878,-0.1623 -0.07265,-0.33333 -0.07265,-0.51435 -3.54e-4,-0.23138 0.05284,-0.45611 0.158722,-0.67545 0.09385,-0.19745 0.223589,-0.37146 0.38832,-0.523055 0.361633,-0.331457 0.805807,-0.496677 1.331994,-0.496677 0.405466,-3.48e-4 0.75225,0.09722 1.03894,0.291622 0.412713,0.289838 0.619511,0.69166 0.619511,1.20445 0,0.49498 -0.178518,0.87441 -0.535731,1.13816 -0.326635,0.24543 -0.759851,0.4029 -1.301414,0.47063 l -0.03093,-0.13051 c 0.510456,-0.0961 0.905494,-0.29098 1.18529,-0.58562 0.246744,-0.25937 0.370646,-0.565 0.370646,-0.91709 -1.77e-4,-0.41118 -0.145996,-0.74396 -0.437989,-0.998783 -0.231544,-0.219973 -0.537676,-0.329799 -0.919279,-0.329799 -0.0813,-3.34e-4 -0.159783,0.0084 -0.236316,0.02479 z m -0.139104,0.02869 c -0.298355,0.07758 -0.543861,0.201727 -0.736697,0.37107 -0.165262,0.139355 -0.29535,0.316455 -0.390441,0.529955 -0.08785,0.19405 -0.1315,0.39025 -0.1315,0.5875 0,0.2453 0.05514,0.45198 0.165262,0.61835 0.06645,0.10265 0.134856,0.15466 0.204325,0.15466 0.06505,-1.8e-4 0.138212,-0.04 0.219347,-0.12006 0.167737,-0.17999 0.323277,-0.45161 0.466092,-0.81551 0.180639,-0.45143 0.271666,-0.786 0.271666,-1.005469 -3.54e-4,-0.142977 -0.0228,-0.249739 -0.06806,-0.320454"
       id="path60" />
    <path
       style="stroke-width:0.0017675"
       inkscape:connector-curvature="0"
       d="m 54.764983,75.833468 c 0.125677,0.08134 0.284042,0.12271 0.473692,0.12271 0.115426,-1.11e-4 0.243565,-0.0042 0.383196,-0.01114 0.171272,-0.0097 0.310553,-0.0188 0.41625,-0.03008 0.118782,-0.01421 0.201141,-0.03204 0.246742,-0.05474 0.04349,-0.02312 0.08962,-0.03399 0.136625,-0.03399 0.08502,-3.62e-4 0.160669,0.02173 0.226771,0.06505 0.05551,0.0344 0.08378,0.07229 0.08378,0.112821 -3.67e-4,0.08218 -0.04489,0.123546 -0.134326,0.123546 -0.06381,-5.6e-5 -0.161019,0.0028 -0.293051,0.0084 -0.252753,0.0097 -0.603781,0.03399 -1.053257,0.07159 -0.0088,0.0012 -0.02421,0.0028 -0.04613,0.0042 -0.02067,8.08e-4 -0.03679,0.0028 -0.04861,0.0042 -0.0075,0.0013 -0.0189,0.0028 -0.03516,0.0042 -0.03269,0.0056 -0.05656,0.0084 -0.07264,0.0084 -0.116303,-4.45e-4 -0.240912,-0.10321 -0.374535,-0.309714 z m -0.41112,0.943667 c 0.08236,0.0748 0.156425,0.1248 0.221469,0.14897 0.05567,0.0205 0.126193,0.0315 0.210334,0.0315 0.129382,-4.5e-4 0.333526,-0.0112 0.611026,-0.032 0.599008,-0.0478 0.981496,-0.0788 1.146758,-0.0941 0.106233,-0.01 0.186823,-0.0329 0.241443,-0.0712 0.03339,-0.0246 0.06257,-0.0368 0.08626,-0.0368 0.04401,-2e-4 0.104812,0.0405 0.181521,0.12173 0.07212,0.0768 0.108531,0.14028 0.108531,0.19041 -3.54e-4,0.0365 -0.02738,0.0688 -0.08183,0.0953 -0.0403,0.0216 -0.07778,0.0766 -0.113128,0.16378 -0.233488,0.53267 -0.52124,0.9559 -0.86378,1.26885 -0.323809,0.29647 -0.731039,0.5314 -1.222763,0.70413 l -0.06399,-0.117 c 0.976371,-0.44237 1.610202,-1.15295 1.900422,-2.13269 -0.474925,0.0333 -0.998109,0.0833 -1.571134,0.14814 -0.14794,0.0144 -0.256995,0.0361 -0.329288,0.0641 -0.05479,0.0171 -0.09792,0.0266 -0.130441,0.0266 -0.07105,0 -0.15077,-0.0448 -0.240736,-0.13468 -0.08148,-0.0787 -0.144407,-0.1688 -0.190006,-0.2719 l 0.09934,-0.073"
       id="path62" />
    <path
       style="stroke-width:0.0017675"
       inkscape:connector-curvature="0"
       d="m 58.460663,77.565995 c 0.09668,0.088 0.163496,0.13288 0.198668,0.13288 0.05002,-1.3e-4 0.145115,-0.0774 0.285099,-0.23229 0.281033,-0.32668 0.527426,-0.59533 0.738111,-0.80735 0.07794,-0.07856 0.153244,-0.117836 0.225535,-0.117836 0.0776,-1.68e-4 0.20609,0.08524 0.384431,0.255646 0.62835,0.57169 1.172036,0.99147 1.630349,1.25767 0.137683,0.0765 0.207151,0.1722 0.207151,0.28612 -3.69e-4,0.0574 -0.01556,0.10266 -0.04631,0.13539 -0.02687,0.0274 -0.05815,0.0421 -0.09491,0.0421 -0.06399,-4.4e-4 -0.224472,-0.10307 -0.483236,-0.30928 -0.415188,-0.33437 -0.901075,-0.78281 -1.458547,-1.34668 -0.05762,-0.0584 -0.100035,-0.0868 -0.127961,-0.0868 -0.04119,-4.5e-4 -0.108879,0.0564 -0.203088,0.16924 -0.326635,0.39758 -0.536263,0.65766 -0.628881,0.77932 -0.04719,0.0637 -0.110119,0.15822 -0.18965,0.28286 -0.02952,0.0458 -0.0684,0.0691 -0.117014,0.0691 -0.04755,-3.3e-4 -0.111707,-0.0439 -0.194073,-0.13148 -0.07794,-0.085 -0.142815,-0.18369 -0.19425,-0.29667 z m 2.496959,-1.363519 c 0.194602,0.06783 0.347316,0.153214 0.457255,0.25524 0.09509,0.08831 0.142815,0.176154 0.142815,0.261929 0,0.10655 -0.04543,0.15991 -0.136277,0.15991 -0.06222,-3.5e-4 -0.110829,-0.0467 -0.14741,-0.14 -0.07211,-0.170522 -0.20008,-0.319112 -0.384785,-0.446474 z m 0.417837,-0.311511 c 0.190007,0.05711 0.344486,0.138867 0.46185,0.244654 0.09951,0.08928 0.14953,0.176377 0.14953,0.260087 -3.69e-4,0.1053 -0.0433,0.158716 -0.12973,0.158716 -0.05904,-4.04e-4 -0.110119,-0.04917 -0.154129,-0.147531 -0.06769,-0.149941 -0.199376,-0.29158 -0.396098,-0.425293 l 0.06858,-0.09068"
       id="path64" />
    <path
       style="stroke-width:0.0017675"
       inkscape:connector-curvature="0"
       d="m 63.705387,75.88219 c 0.1642,0.0097 0.296943,0.04568 0.39822,0.106135 0.08024,0.05 0.1209,0.103907 0.1209,0.161376 -3.69e-4,0.02744 -0.0054,0.06839 -0.01662,0.121456 -0.01554,0.07925 -0.02295,0.240783 -0.02295,0.483818 v 0.64765 l 3.68e-4,0.2469 c -3.54e-4,0.14548 -0.05833,0.21843 -0.175337,0.21843 -0.09155,-4.8e-4 -0.136806,-0.0734 -0.136806,-0.22028 0,-0.0139 0.0022,-0.0419 0.0065,-0.0859 0.0039,-0.0503 0.0084,-0.0969 0.01114,-0.14104 0.02351,-0.2855 0.03553,-0.59283 0.03553,-0.923394 -1.77e-4,-0.186754 -0.01485,-0.305564 -0.04436,-0.35703 -0.04066,-0.06184 -0.111177,-0.107946 -0.212101,-0.138728 z m 0.380189,3.290385 c 0.493311,-0.23926 0.84187,-0.52232 1.0453,-0.85083 0.19691,-0.3214 0.29606,-0.73576 0.29606,-1.24404 v -0.806534 c -1.8e-4,-0.191795 -0.0169,-0.315313 -0.0509,-0.371264 -0.0313,-0.0592 -0.11577,-0.106832 -0.25417,-0.143701 l 0.0286,-0.123685 c 0.23455,0.0056 0.39928,0.04569 0.49278,0.119367 0.0596,0.0468 0.0898,0.09499 0.0898,0.143659 -1.8e-4,0.01727 -0.003,0.0539 -0.009,0.108364 -0.009,0.09123 -0.0132,0.190737 -0.0132,0.298279 0,0.728765 -0.0169,1.186705 -0.0507,1.372295 -0.0707,0.42565 -0.24144,0.76984 -0.51311,1.03212 -0.23119,0.22232 -0.561709,0.41543 -0.993334,0.57893 l -0.0684,-0.11282"
       id="path66" />
    <path
       style="stroke-width:0.0017675"
       inkscape:connector-curvature="0"
       d="m 67.984346,76.036852 c 0.35438,0.103628 0.61314,0.234779 0.77629,0.391781 0.13221,0.122989 0.19849,0.240682 0.19849,0.352182 -3.5e-4,0.15209 -0.0573,0.2288 -0.17198,0.2288 -0.0502,-1.1e-4 -0.11029,-0.0586 -0.18099,-0.17597 -0.16951,-0.284878 -0.39628,-0.514002 -0.68155,-0.688485 z m 0.0663,2.452933 c 0.0806,0.13135 0.1642,0.19752 0.24975,0.19752 0.0995,-2.2e-4 0.24515,-0.0504 0.43534,-0.15138 0.95905,-0.50507 1.72084,-1.18077 2.28503,-2.028442 l 0.10392,0.09067 c -0.29075,0.509012 -0.61668,0.934362 -0.9792,1.275342 -0.34501,0.32554 -0.78,0.63524 -1.30601,0.92744 -0.17586,0.0957 -0.28138,0.15954 -0.31815,0.19042 -0.055,0.0486 -0.12372,0.0731 -0.20768,0.0731 -0.046,-4.3e-4 -0.10835,-0.0512 -0.18788,-0.15382 -0.0767,-0.10154 -0.13628,-0.21776 -0.17888,-0.35012 l 0.10376,-0.0708"
       id="path68" />
    <path
       style="stroke-width:0.0017675"
       inkscape:connector-curvature="0"
       d="m 73.668996,76.492036 c 0.26866,-0.02173 0.57586,-0.05376 0.92105,-0.09666 0.085,-0.01254 0.1513,-0.03454 0.19831,-0.06895 0.0364,-0.0305 0.0712,-0.04513 0.10341,-0.04513 0.0293,-9.7e-5 0.0859,0.04192 0.16968,0.125775 0.094,0.09388 0.14105,0.163883 0.14105,0.209541 -3.7e-4,0.03329 -0.0228,0.06532 -0.0684,0.09471 -0.059,0.0351 -0.11771,0.11185 -0.1764,0.22943 -0.31514,0.63956 -0.68119,1.14332 -1.09885,1.51087 -0.39752,0.34991 -0.89047,0.62637 -1.48029,0.82929 l -0.0576,-0.117 c 0.6538,-0.30346 1.17345,-0.66368 1.55806,-1.08066 0.36375,-0.39214 0.67253,-0.89638 0.92582,-1.513738 l -1.26624,0.119368 c -0.18736,0.2574 -0.37631,0.47435 -0.56791,0.64966 -0.20927,0.19277 -0.45159,0.36821 -0.72715,0.52591 l -0.0772,-0.11254 c 0.49154,-0.36542 0.89948,-0.79266 1.22364,-1.281875 0.13309,-0.200863 0.19991,-0.340316 0.19991,-0.419834 -3.5e-4,-0.06936 -0.0702,-0.129674 -0.21034,-0.181237 l 0.0398,-0.121457 c 0.17215,0.02354 0.31037,0.06407 0.41413,0.121457 0.0889,0.04819 0.13361,0.09945 0.13361,0.152377 -3.7e-4,0.0319 -0.0147,0.0709 -0.044,0.11505 -0.0912,0.12661 -0.17587,0.245295 -0.25399,0.355818 z m 1.29947,-0.868499 c 0.19319,0.06741 0.3452,0.151779 0.45514,0.25297 0.0947,0.08789 0.14299,0.174441 0.14299,0.259516 -3.7e-4,0.105021 -0.0447,0.158312 -0.13433,0.158312 -0.0635,-3.21e-4 -0.11276,-0.0461 -0.14953,-0.13845 -0.0705,-0.168674 -0.19796,-0.315801 -0.38284,-0.441785 z m 0.41555,-0.311525 c 0.18965,0.05741 0.3443,0.140217 0.46273,0.247092 0.0992,0.09026 0.149,0.178229 0.149,0.262747 -3.5e-4,0.106832 -0.0431,0.160345 -0.12938,0.160345 -0.059,-5.15e-4 -0.10994,-0.04986 -0.15378,-0.149369 -0.0677,-0.15033 -0.19972,-0.293502 -0.39733,-0.430195 l 0.0687,-0.09062"
       id="path70" />
    <path
       style="stroke-width:0.0017675"
       inkscape:connector-curvature="0"
       d="m 88.183615,76.307331 v -0.877249 c 0.32045,0.0085 0.48111,0.04782 0.48111,0.117041 -3.5e-4,0.04374 -0.0693,0.09054 -0.20803,0.139146 v 0.621017 h 1.22647 l 0.24763,-0.324952 c 0.1041,0.09026 0.21793,0.207744 0.34007,0.352573 l -0.044,0.08942 h -2.01619 c -3.7e-4,0.339999 -0.0186,0.630499 -0.0557,0.871369 h 1.338 l 0.18134,-0.22169 c 0.19355,0.15012 0.29093,0.2481 0.29093,0.29279 -1.7e-4,0.0208 -0.0145,0.0403 -0.0435,0.0581 l -0.12143,0.0738 c -0.0221,1.01724 -0.13044,1.61923 -0.32504,1.80428 -0.10463,0.10419 -0.25399,0.15472 -0.44842,0.15038 -0.005,-0.0918 -0.0726,-0.15904 -0.2045,-0.20321 -0.088,-0.0329 -0.27927,-0.0737 -0.57568,-0.12368 v -0.12564 c 0.32664,0.0419 0.59212,0.0637 0.79609,0.0637 0.18594,-4.5e-4 0.30012,-0.0733 0.34148,-0.21967 0.0942,-0.31513 0.14405,-0.79218 0.14865,-1.43203 h -1.39563 c -0.0753,0.47723 -0.22111,0.87921 -0.43763,1.20543 -0.24639,0.36561 -0.61881,0.66329 -1.1183,0.89251 l -0.0686,-0.10809 c 0.62022,-0.36692 1.02763,-0.85085 1.22206,-1.45195 0.097,-0.30247 0.15766,-0.68223 0.18134,-1.14041 v -0.0866 l 0.004,-0.0731 c 0.003,-0.07549 0.004,-0.150832 0.004,-0.226172 h -1.47186 l -0.0398,-0.116999 h 1.77016"
       id="path72" />
    <path
       style="stroke-width:0.0017675"
       inkscape:connector-curvature="0"
       d="m 94.062695,78.297156 h -2.25941 c -0.0698,0.52255 -0.34183,0.92142 -0.8164,1.19547 l -0.0817,-0.0904 c 0.43145,-0.34257 0.64744,-0.82868 0.64744,-1.45985 v -1.10182 c -0.16685,0.1613 -0.34767,0.31369 -0.54351,0.45622 l -0.0774,-0.0859 c 0.51717,-0.45914 0.91858,-1.0573 1.20385,-1.794566 0.2874,0.0497 0.43145,0.10608 0.43145,0.167854 -1.8e-4,0.04374 -0.0764,0.08023 -0.22942,0.108364 -0.0325,0.06867 -0.0622,0.131068 -0.09,0.185737 h 0.8576 l 0.17463,-0.203412 c 0.20061,0.164969 0.30171,0.275213 0.30171,0.329005 -3.5e-4,0.02075 -0.0139,0.03803 -0.0414,0.0514 l -0.13998,0.04903 c -0.12727,0.168424 -0.27839,0.336402 -0.45478,0.50236 h 1.07783 l 0.18841,-0.229027 c 0.19495,0.147211 0.29322,0.243053 0.29322,0.286515 -3.6e-4,0.0198 -0.0125,0.0375 -0.0389,0.0521 l -0.13023,0.076 v 2.20562 c 0,0.29857 -0.17338,0.44871 -0.52018,0.44871 -0.004,-0.0903 -0.0663,-0.15759 -0.18576,-0.20325 -0.10098,-0.0344 -0.27838,-0.0687 -0.53343,-0.10404 v -0.12146 c 0.25593,0.0312 0.52017,0.0469 0.79132,0.0469 0.1163,-4.3e-4 0.17498,-0.0539 0.17498,-0.16175 z m -2.18411,-1.690696 h 0.9009 c 0.13805,-0.200153 0.24692,-0.403858 0.32575,-0.611253 h -0.9191 c -0.11931,0.216184 -0.24356,0.408245 -0.37401,0.575679 l 0.0221,0.01393 z m -0.0528,0.104046 v 0.65027 h 0.96241 v -0.65026 z m 2.23695,1.4696 v -0.70229 h -1.01437 v 0.70229 z m 0,-0.81933 v -0.65026 h -1.01437 v 0.65026 z m -2.24579,0.81933 h 0.97125 v -0.70229 h -0.96241 v 0.469 c 0,0.0468 -0.003,0.1248 -0.009,0.23329"
       id="path74" />
    <path
       style="stroke-width:0.0017675"
       inkscape:connector-curvature="0"
       d="m 96.456075,77.583696 0.11951,0.0553 c -0.15572,0.42212 -0.2464,0.67418 -0.27255,0.75575 -0.0539,0.16693 -0.0808,0.29192 -0.0808,0.37349 -1.8e-4,0.0695 0.007,0.14217 0.0217,0.21762 0.001,0.008 0.006,0.026 0.0111,0.0513 0.004,0.0175 0.007,0.0311 0.007,0.0401 -3.5e-4,0.0262 -0.01,0.0507 -0.0288,0.0723 -0.0195,0.021 -0.0414,0.0322 -0.0664,0.0322 -0.10823,0 -0.19867,-0.10711 -0.27254,-0.32127 -0.0846,-0.2513 -0.12634,-0.55699 -0.12634,-0.9175 -3.7e-4,-0.36937 0.0709,-0.80653 0.2128,-1.311705 0.0574,-0.2039 0.0862,-0.342753 0.0862,-0.416574 0,-0.09332 -0.0432,-0.196518 -0.12939,-0.310314 l 0.0816,-0.08176 c 0.11769,0.07772 0.21157,0.167922 0.28174,0.269656 0.0518,0.07647 0.0781,0.137614 0.0781,0.183285 -3.6e-4,0.06296 -0.023,0.145247 -0.0692,0.24549 -0.23155,0.525492 -0.34678,0.982602 -0.34678,1.370052 -1.8e-4,0.24702 0.0231,0.44421 0.0695,0.59012 0.11449,-0.23031 0.25629,-0.52902 0.42438,-0.89737 z m 0.98344,-0.66066 c 0.0111,-0.0125 0.16278,-0.14516 0.45301,-0.40012 -0.0401,0.0028 -0.0958,0.0056 -0.16791,0.0056 -0.28156,-5.57e-4 -0.51116,-0.07396 -0.6895,-0.221895 l 0.0772,-0.09513 c 0.11491,0.06365 0.28881,0.09597 0.52158,0.09597 0.28281,-4.73e-4 0.52089,-0.03231 0.71391,-0.09694 0.0735,-0.02215 0.12661,-0.03315 0.15908,-0.03315 0.10168,-1.53e-4 0.17674,0.02396 0.22535,0.07173 0.0432,0.03036 0.065,0.06992 0.065,0.116999 -1.6e-4,0.07215 -0.0695,0.108364 -0.20856,0.108364 -0.14971,-2.09e-4 -0.30189,0.03984 -0.45708,0.119228 -0.16172,0.08344 -0.36181,0.225434 -0.60148,0.424304 z m -0.34926,1.16238 c 0.0703,0.20759 0.19002,0.35142 0.35792,0.42997 0.15024,0.0712 0.37206,0.10698 0.66512,0.10698 0.14722,-3.5e-4 0.3162,-0.0148 0.5062,-0.0442 0.0475,-0.0143 0.0974,-0.0209 0.14813,-0.0209 0.0738,-4.7e-4 0.13664,0.0111 0.18735,0.0351 0.0593,0.0259 0.0894,0.0717 0.0894,0.13622 0,0.061 -0.0624,0.1046 -0.18736,0.1294 -0.1248,0.0244 -0.33176,0.0373 -0.62128,0.0373 -0.42049,-6e-5 -0.73457,-0.0702 -0.94314,-0.21071 -0.19019,-0.13218 -0.29747,-0.31601 -0.32399,-0.55296 l 0.12159,-0.0464"
       id="path76" />
    <path
       style="stroke-width:0.0017675"
       inkscape:connector-curvature="0"
       d="m 101.99245,76.754996 c 0.0487,-1e-4 0.0911,-0.001 0.12675,-0.004 0.26724,-0.0139 0.50443,-0.0589 0.71018,-0.137336 0.10168,-0.03928 0.15978,-0.05892 0.1732,-0.05892 0.0617,-4.18e-4 0.1145,0.01825 0.15731,0.0546 0.0398,0.03329 0.06,0.07382 0.06,0.120486 -3.4e-4,0.0433 -0.0422,0.0809 -0.12688,0.11156 -0.27449,0.0858 -0.56348,0.1294 -0.86854,0.1294 -0.0826,-5e-5 -0.15839,-0.0111 -0.22749,-0.0343 0.004,0.42686 0.0258,0.86336 0.0639,1.30826 0.44646,0.10906 0.79201,0.23322 1.03557,0.37083 0.20327,0.11505 0.30542,0.2235 0.30542,0.32415 -3.5e-4,0.10056 -0.0465,0.15098 -0.13945,0.15098 -0.049,-2.8e-4 -0.11714,-0.0363 -0.20592,-0.10892 -0.23153,-0.19193 -0.55746,-0.35534 -0.97795,-0.49177 0.006,0.15894 -0.001,0.28023 -0.0221,0.36272 -0.0281,0.10725 -0.0838,0.19842 -0.16756,0.27211 -0.10906,0.0894 -0.30579,0.13497 -0.59089,0.13497 -0.24409,-8e-5 -0.44171,-0.0486 -0.59318,-0.1459 -0.15324,-0.0992 -0.22923,-0.23294 -0.22923,-0.40255 -3.8e-4,-0.19355 0.11101,-0.34044 0.33282,-0.44219 0.15271,-0.0682 0.31744,-0.10182 0.49365,-0.10182 0.15395,-2e-5 0.32699,0.0112 0.51806,0.0354 -0.0299,-0.45671 -0.0474,-0.89276 -0.0532,-1.30825 -0.01,-0.550023 -0.0242,-0.866228 -0.0462,-0.950231 -0.0311,-0.10321 -0.11644,-0.159036 -0.25628,-0.167839 l -0.007,-0.126053 c 0.0875,-0.01254 0.15678,-0.01908 0.20733,-0.01908 0.26442,-1.39e-4 0.39734,0.08664 0.39734,0.25992 -3.7e-4,0.02507 -0.004,0.07187 -0.0145,0.14001 -0.0372,0.223204 -0.0556,0.464864 -0.0556,0.724013 z m -0.1635,1.67954 c -0.21316,-0.0485 -0.41236,-0.0724 -0.59866,-0.0724 -0.15465,-2.5e-4 -0.28633,0.028 -0.39628,0.084 -0.11783,0.0599 -0.17621,0.14294 -0.17621,0.24751 -3.7e-4,0.12174 0.0682,0.21372 0.20468,0.27413 0.1053,0.0471 0.24002,0.0708 0.40298,0.0708 0.19762,-4e-5 0.33972,-0.0329 0.42492,-0.0988 0.0777,-0.0572 0.12327,-0.14062 0.13622,-0.25035 0.001,-0.018 0.003,-0.10251 0.003,-0.25482"
       id="path78" />
    <path
       style="stroke-width:0.0017675"
       inkscape:connector-curvature="0"
       d="m 106.86404,78.969376 c 0.2699,-0.0869 0.46345,-0.2026 0.5801,-0.34892 0.10599,-0.13497 0.15926,-0.3088 0.15926,-0.52243 -1.8e-4,-0.23767 -0.0964,-0.42222 -0.28917,-0.55539 -0.15077,-0.10432 -0.3254,-0.15586 -0.52565,-0.15586 -0.2623,-3.3e-4 -0.5269,0.061 -0.79468,0.1829 -0.37011,0.16253 -0.64708,0.38252 -0.83267,0.6598 -0.052,0.0795 -0.10294,0.11965 -0.1543,0.11965 -0.0814,-4e-5 -0.1216,-0.072 -0.1216,-0.21623 -3.6e-4,-0.0724 0.0389,-0.14783 0.11686,-0.22737 1.13191,-1.13857 1.76998,-1.781327 1.91262,-1.928454 l -0.0111,-0.01769 c -0.54688,0.162281 -0.8979,0.278194 -1.05415,0.347669 -0.0546,0.02577 -0.10377,0.03928 -0.14812,0.03928 -0.0827,-5.44e-4 -0.16119,-0.05084 -0.23631,-0.152615 -0.0624,-0.08455 -0.10976,-0.18667 -0.1437,-0.307235 l 0.10836,-0.05948 c 0.0999,0.138171 0.19673,0.207256 0.28952,0.207256 0.1794,-1.95e-4 0.45584,-0.04778 0.82879,-0.143227 0.18682,-0.05613 0.3063,-0.107528 0.35774,-0.154662 0.0276,-0.01866 0.0518,-0.0273 0.071,-0.0273 0.0627,-2.37e-4 0.13928,0.04165 0.22801,0.124939 0.0657,0.06574 0.0995,0.119924 0.0995,0.162365 -1.9e-4,0.03594 -0.0244,0.06491 -0.0731,0.08538 -0.0596,0.02187 -0.1255,0.06212 -0.19937,0.120761 -0.0723,0.06449 -0.26072,0.246827 -0.56579,0.545813 -0.31373,0.30771 -0.59582,0.58048 -0.84629,0.81769 l 0.0139,0.0139 c 0.23102,-0.14409 0.45338,-0.24466 0.66583,-0.30278 0.17816,-0.0481 0.37312,-0.0719 0.58398,-0.0719 0.26654,-3.4e-4 0.50215,0.0852 0.70559,0.25585 0.20944,0.17769 0.31426,0.41014 0.31426,0.69677 -3.7e-4,0.35248 -0.15059,0.63059 -0.45141,0.83339 -0.251,0.17054 -0.5589,0.25585 -0.92459,0.25585 -0.36146,-4.9e-4 -0.62305,-0.0593 -0.78531,-0.17784 -0.0705,-0.0471 -0.12535,-0.10948 -0.16632,-0.18735 -0.0355,-0.0663 -0.0525,-0.13162 -0.0525,-0.19629 0,-0.1177 0.05,-0.21169 0.15005,-0.28227 0.0882,-0.062 0.2008,-0.0926 0.33742,-0.0926 0.21635,0 0.4106,0.0742 0.58276,0.2227 0.1437,0.12494 0.23454,0.27041 0.27131,0.43649 z m -0.28067,0.0531 c -0.0401,-0.16127 -0.11644,-0.29683 -0.23014,-0.40847 -0.10781,-0.10767 -0.2257,-0.16073 -0.3542,-0.16073 -0.10795,-5.5e-4 -0.1886,0.026 -0.24321,0.078 -0.0429,0.0403 -0.0642,0.0917 -0.0642,0.15405 -3.8e-4,0.10697 0.0635,0.19128 0.19018,0.25237 0.0794,0.0386 0.19178,0.0662 0.33636,0.0826 0.13218,0.0159 0.25452,0.017 0.36516,0.003"
       id="path80" />
    <path
       style="stroke-width:0.0017675"
       inkscape:connector-curvature="0"
       d="m 110.81831,76.307331 v -0.877249 c 0.32045,0.0085 0.48112,0.04782 0.48112,0.117041 -3.5e-4,0.04374 -0.0692,0.09054 -0.20804,0.139146 v 0.621017 h 1.22648 l 0.24762,-0.324952 c 0.10404,0.09026 0.21794,0.207744 0.34008,0.352573 l -0.044,0.08942 h -2.01619 c -3.8e-4,0.339999 -0.0185,0.630499 -0.0557,0.871369 h 1.338 l 0.18135,-0.22169 c 0.19354,0.15012 0.29093,0.2481 0.29093,0.29279 -1.8e-4,0.0208 -0.0145,0.0403 -0.0435,0.0581 l -0.12146,0.0738 c -0.0221,1.01724 -0.13037,1.61923 -0.32505,1.80428 -0.1046,0.10419 -0.25398,0.15472 -0.44841,0.15038 -0.004,-0.0918 -0.0726,-0.15904 -0.2045,-0.20321 -0.088,-0.0329 -0.27927,-0.0737 -0.57568,-0.12368 v -0.12564 c 0.32664,0.0419 0.59212,0.0637 0.79609,0.0637 0.18594,-4.5e-4 0.30013,-0.0733 0.34148,-0.21967 0.0942,-0.31513 0.14405,-0.79218 0.14865,-1.43203 h -1.39563 c -0.0753,0.47723 -0.22111,0.87921 -0.43763,1.20543 -0.24638,0.36561 -0.6188,0.66329 -1.11829,0.89251 l -0.0685,-0.10809 c 0.62021,-0.36692 1.02762,-0.85085 1.22204,-1.45195 0.0971,-0.30247 0.15766,-0.68223 0.18135,-1.14041 v -0.0866 l 0.004,-0.0731 c 0.003,-0.07549 0.004,-0.150832 0.004,-0.226172 h -1.4718 l -0.0397,-0.116999 h 1.77014"
       id="path82" />
    <path
       style="stroke-width:0.0017675"
       inkscape:connector-curvature="0"
       d="m 115.01225,76.281326 c 0.0947,-0.218065 0.17127,-0.494211 0.22907,-0.828691 0.31125,0.07201 0.46768,0.13994 0.46768,0.203217 -1.7e-4,0.04401 -0.0691,0.07285 -0.20733,0.08622 -0.0801,0.162016 -0.19266,0.341806 -0.33812,0.539326 h 1.74135 l 0.17958,-0.22535 c 0.20113,0.145372 0.30224,0.240253 0.30224,0.283446 -3.5e-4,0.0202 -0.016,0.04039 -0.0479,0.06059 l -0.12117,0.07577 v 2.572642 c -3.7e-4,0.26661 -0.16756,0.39829 -0.50268,0.39382 -0.004,-0.093 -0.0658,-0.15761 -0.18418,-0.19445 -0.0965,-0.0298 -0.26123,-0.0598 -0.4949,-0.0907 v -0.12633 c 0.29235,0.0221 0.53696,0.0337 0.73316,0.0337 0.117,-4.5e-4 0.17551,-0.0489 0.17551,-0.14674 v -2.532368 h -2.90012 v 3.121098 h -0.27325 v -3.368817 c 0.15288,0.05989 0.2623,0.108364 0.32822,0.143673 z m 0.0156,0.85835 h 0.90125 l 0.1688,-0.20726 c 0.18275,0.14614 0.27449,0.24031 0.27449,0.28163 -3.6e-4,0.0187 -0.0139,0.0378 -0.0414,0.0554 l -0.11477,0.0776 v 1.24018 h -0.24727 v -0.29017 h -1.00128 v 0.35461 h -0.24711 v -1.6511 c 0.0951,0.0352 0.1976,0.0818 0.30719,0.139 z m -0.06,0.11699 v 0.92338 h 1.00128 v -0.92338 h -1.00128"
       id="path84" />
    <path
       style="stroke-width:0.0017675"
       inkscape:connector-curvature="0"
       d="m 119.87749,76.176041 c 0.0994,0.148394 0.15006,0.279071 0.15006,0.390987 -3.8e-4,0.171868 -0.0417,0.403588 -0.12536,0.693768 -0.0854,0.29284 -0.19477,0.56836 -0.32946,0.82604 -0.12773,0.24998 -0.24922,0.42857 -0.36482,0.53463 -0.11324,0.10447 -0.2372,0.15691 -0.37348,0.15691 -0.0957,-5.3e-4 -0.2013,-0.0618 -0.3185,-0.18535 -0.0809,-0.0811 -0.14651,-0.20611 -0.1976,-0.37532 -0.0487,-0.1623 -0.0727,-0.33333 -0.0727,-0.51435 -3.5e-4,-0.23138 0.0528,-0.45611 0.15873,-0.67545 0.0939,-0.19745 0.22358,-0.37146 0.38831,-0.523055 0.36164,-0.331457 0.80581,-0.496677 1.332,-0.496677 0.40546,-3.48e-4 0.75225,0.09722 1.03893,0.291622 0.41273,0.289838 0.61953,0.69166 0.61953,1.20445 0,0.49498 -0.17853,0.87441 -0.53574,1.13816 -0.32663,0.24543 -0.75985,0.4029 -1.30141,0.47063 l -0.0309,-0.13051 c 0.51045,-0.0961 0.90549,-0.29098 1.18528,-0.58562 0.24675,-0.25937 0.37065,-0.565 0.37065,-0.91709 -1.7e-4,-0.41118 -0.146,-0.74396 -0.43798,-0.998783 -0.23155,-0.219973 -0.53769,-0.329799 -0.91929,-0.329799 -0.0813,-3.34e-4 -0.15979,0.0084 -0.23631,0.02479 z m -0.13915,0.02869 c -0.29835,0.07758 -0.54385,0.201727 -0.73669,0.37107 -0.16527,0.139355 -0.29536,0.316455 -0.39045,0.529955 -0.0879,0.19405 -0.13148,0.39025 -0.13148,0.5875 0,0.2453 0.0551,0.45198 0.16526,0.61835 0.0664,0.10265 0.13483,0.15466 0.20432,0.15466 0.065,-1.8e-4 0.13817,-0.04 0.21936,-0.12006 0.16772,-0.17999 0.32326,-0.45161 0.46609,-0.81551 0.18064,-0.45143 0.27166,-0.786 0.27166,-1.005469 -3.6e-4,-0.142977 -0.0228,-0.249739 -0.0681,-0.320454"
       id="path86" />
    <path
       style="stroke-width:0.0017675"
       inkscape:connector-curvature="0"
       d="m 123.57546,75.833469 c 0.12564,0.08134 0.28405,0.12271 0.47369,0.12271 0.11546,-1.11e-4 0.24358,-0.0042 0.3832,-0.01114 0.17128,-0.0097 0.31056,-0.0188 0.41625,-0.03008 0.11881,-0.01421 0.20114,-0.03204 0.24674,-0.05474 0.0435,-0.02312 0.0896,-0.03399 0.13664,-0.03399 0.085,-3.62e-4 0.16067,0.02173 0.22677,0.06505 0.0556,0.0344 0.0837,0.07229 0.0837,0.112821 -3.7e-4,0.08218 -0.0448,0.123546 -0.13427,0.123546 -0.0638,-5.6e-5 -0.16102,0.0028 -0.29305,0.0084 -0.25275,0.0097 -0.60378,0.03399 -1.05326,0.07159 -0.008,0.0012 -0.0242,0.0028 -0.0461,0.0042 -0.0206,8.08e-4 -0.0368,0.0028 -0.0486,0.0042 -0.008,0.0013 -0.0189,0.0028 -0.0351,0.0042 -0.0327,0.0056 -0.0565,0.0084 -0.0726,0.0084 -0.11631,-4.45e-4 -0.24091,-0.10321 -0.37453,-0.309714 z m -0.41111,0.943667 c 0.0823,0.0748 0.15642,0.1248 0.22146,0.14897 0.0557,0.0205 0.1262,0.0315 0.21034,0.0315 0.12939,-4.5e-4 0.33353,-0.0112 0.61103,-0.032 0.59899,-0.0478 0.98149,-0.0788 1.14675,-0.0941 0.10627,-0.01 0.18683,-0.0329 0.24145,-0.0712 0.0334,-0.0246 0.0625,-0.0368 0.0862,-0.0368 0.044,-2e-4 0.10474,0.0405 0.18151,0.12173 0.0721,0.0768 0.10851,0.14028 0.10851,0.19041 -3.5e-4,0.0365 -0.0274,0.0688 -0.0819,0.0953 -0.0403,0.0216 -0.0777,0.0766 -0.1131,0.16378 -0.23349,0.53267 -0.52124,0.9559 -0.86378,1.26885 -0.32381,0.29647 -0.73104,0.5314 -1.22276,0.70413 l -0.0639,-0.117 c 0.97636,-0.44237 1.61019,-1.15295 1.90042,-2.13269 -0.47492,0.0333 -0.99812,0.0833 -1.57114,0.14814 -0.14793,0.0144 -0.25699,0.0361 -0.32928,0.0641 -0.0547,0.0171 -0.0979,0.0266 -0.13037,0.0266 -0.071,0 -0.15078,-0.0448 -0.24074,-0.13468 -0.0815,-0.0787 -0.14441,-0.1688 -0.19001,-0.2719 l 0.0993,-0.073"
       id="path88" />
    <path
       style="stroke-width:0.0017675"
       inkscape:connector-curvature="0"
       d="m 127.27115,77.565996 c 0.0967,0.088 0.16349,0.13288 0.19866,0.13288 0.05,-1.3e-4 0.14512,-0.0774 0.2851,-0.23229 0.28104,-0.32668 0.52743,-0.59533 0.73812,-0.80735 0.078,-0.07856 0.15324,-0.117836 0.22553,-0.117836 0.0776,-1.68e-4 0.20608,0.08524 0.38444,0.255646 0.62834,0.57169 1.17203,0.99147 1.63033,1.25767 0.13761,0.0765 0.20716,0.1722 0.20716,0.28612 -3.8e-4,0.0574 -0.0156,0.10266 -0.0464,0.13539 -0.0269,0.0274 -0.0581,0.0421 -0.0949,0.0421 -0.0639,-4.4e-4 -0.22447,-0.10307 -0.48323,-0.30928 -0.4152,-0.33437 -0.90108,-0.78281 -1.45855,-1.34668 -0.0577,-0.0584 -0.10001,-0.0868 -0.12801,-0.0868 -0.0412,-4.5e-4 -0.10892,0.0564 -0.20308,0.16924 -0.32663,0.39758 -0.53626,0.65766 -0.62888,0.77932 -0.0472,0.0637 -0.11018,0.15822 -0.18965,0.28286 -0.0295,0.0458 -0.0684,0.0691 -0.117,0.0691 -0.0475,-3.3e-4 -0.11171,-0.0439 -0.19407,-0.13148 -0.078,-0.085 -0.14282,-0.18369 -0.19426,-0.29667 z m 2.49695,-1.363519 c 0.19459,0.06783 0.34732,0.153214 0.45726,0.25524 0.0951,0.08831 0.14281,0.176154 0.14281,0.261929 0,0.10655 -0.0454,0.15991 -0.13622,0.15991 -0.0623,-3.5e-4 -0.11088,-0.0467 -0.14741,-0.14 -0.0721,-0.170522 -0.20008,-0.319112 -0.38479,-0.446474 z m 0.41784,-0.311511 c 0.19001,0.05711 0.34448,0.138867 0.46186,0.244654 0.0994,0.08928 0.14952,0.176377 0.14952,0.260087 -3.6e-4,0.1053 -0.0433,0.158716 -0.12968,0.158716 -0.0591,-4.04e-4 -0.11017,-0.04917 -0.15413,-0.147531 -0.0677,-0.149941 -0.19937,-0.29158 -0.3961,-0.425293 l 0.0685,-0.09068"
       id="path90" />
    <path
       style="stroke-width:0.0017675"
       inkscape:connector-curvature="0"
       d="m 132.51587,75.882191 c 0.16419,0.0097 0.29695,0.04568 0.39822,0.106135 0.0802,0.05 0.1209,0.103907 0.1209,0.161376 -3.8e-4,0.02744 -0.006,0.06839 -0.0166,0.121456 -0.0156,0.07925 -0.023,0.240783 -0.023,0.483818 v 0.64765 l 3.7e-4,0.2469 c -3.5e-4,0.14548 -0.0584,0.21843 -0.17534,0.21843 -0.0915,-4.8e-4 -0.13677,-0.0734 -0.13677,-0.22028 0,-0.0139 0.003,-0.0419 0.007,-0.0859 0.004,-0.0503 0.008,-0.0969 0.0111,-0.14104 0.0235,-0.2855 0.0355,-0.59283 0.0355,-0.923394 -1.8e-4,-0.186754 -0.0149,-0.305564 -0.0443,-0.35703 -0.0407,-0.06184 -0.11115,-0.107946 -0.21211,-0.138728 z m 0.3802,3.290385 c 0.4933,-0.23926 0.84185,-0.52232 1.04529,-0.85083 0.19691,-0.3214 0.29607,-0.73576 0.29607,-1.24404 v -0.806534 c -1.9e-4,-0.191795 -0.017,-0.315313 -0.051,-0.371264 -0.0313,-0.0592 -0.11575,-0.106832 -0.25418,-0.143701 l 0.0287,-0.123685 c 0.23455,0.0056 0.39929,0.04569 0.49279,0.119367 0.0596,0.0468 0.0898,0.09499 0.0898,0.143659 -1.8e-4,0.01727 -0.003,0.0539 -0.008,0.108364 -0.008,0.09123 -0.0139,0.190737 -0.0139,0.298279 0,0.728765 -0.017,1.186705 -0.0507,1.372295 -0.0708,0.42565 -0.24143,0.76984 -0.51311,1.03212 -0.23119,0.22232 -0.56171,0.41543 -0.99334,0.57893 l -0.0684,-0.11282"
       id="path92" />
    <path
       style="stroke-width:0.0017675"
       inkscape:connector-curvature="0"
       d="m 136.79483,76.036853 c 0.35438,0.103628 0.61314,0.234779 0.77629,0.391781 0.13218,0.122989 0.19848,0.240682 0.19848,0.352182 -3.5e-4,0.15209 -0.0572,0.2288 -0.17198,0.2288 -0.0501,-1.1e-4 -0.11031,-0.0586 -0.18098,-0.17597 -0.16951,-0.284878 -0.39628,-0.514002 -0.68157,-0.688485 z m 0.0663,2.452933 c 0.0806,0.13135 0.1642,0.19752 0.24975,0.19752 0.0994,-2.2e-4 0.24515,-0.0504 0.43533,-0.15138 0.95905,-0.50507 1.72084,-1.18077 2.28503,-2.028442 l 0.10391,0.09067 c -0.29076,0.509012 -0.61668,0.934362 -0.9792,1.275342 -0.34501,0.32554 -0.78,0.63524 -1.30601,0.92744 -0.17586,0.0957 -0.28138,0.15954 -0.31814,0.19042 -0.055,0.0486 -0.12369,0.0731 -0.20769,0.0731 -0.046,-4.3e-4 -0.10836,-0.0512 -0.18788,-0.15382 -0.0767,-0.10154 -0.13622,-0.21776 -0.17887,-0.35012 l 0.10377,-0.0708"
       id="path94" />
    <path
       style="stroke-width:0.0017675"
       inkscape:connector-curvature="0"
       d="m 142.47947,76.492037 c 0.26867,-0.02173 0.57586,-0.05376 0.92105,-0.09666 0.085,-0.01254 0.15131,-0.03454 0.19832,-0.06895 0.0363,-0.0305 0.0712,-0.04513 0.10335,-0.04513 0.0294,-9.7e-5 0.0859,0.04192 0.16967,0.125775 0.094,0.09388 0.14104,0.163883 0.14104,0.209541 -3.6e-4,0.03329 -0.0228,0.06532 -0.0684,0.09471 -0.0591,0.0351 -0.1177,0.11185 -0.17639,0.22943 -0.31515,0.63956 -0.68121,1.14332 -1.09887,1.51087 -0.3975,0.34991 -0.89046,0.62637 -1.48029,0.82929 l -0.0577,-0.117 c 0.65381,-0.30346 1.17345,-0.66368 1.55806,-1.08066 0.36376,-0.39214 0.67254,-0.89638 0.92582,-1.513738 l -1.26625,0.119368 c -0.18735,0.2574 -0.37629,0.47435 -0.56789,0.64966 -0.20927,0.19277 -0.4516,0.36821 -0.72715,0.52591 l -0.0773,-0.11254 c 0.49153,-0.36542 0.89949,-0.79266 1.22364,-1.281875 0.13316,-0.200863 0.19991,-0.340316 0.19991,-0.419834 -3.5e-4,-0.06936 -0.0702,-0.129674 -0.21034,-0.181237 l 0.0398,-0.121457 c 0.17214,0.02354 0.31037,0.06407 0.41412,0.121457 0.0889,0.04819 0.13357,0.09945 0.13357,0.152377 -3.7e-4,0.0319 -0.0146,0.0709 -0.044,0.11505 -0.0912,0.12661 -0.17588,0.245295 -0.254,0.355818 z m 1.29948,-0.868499 c 0.19319,0.06741 0.34519,0.151779 0.45513,0.25297 0.0947,0.08789 0.14299,0.174441 0.14299,0.259516 -3.7e-4,0.105021 -0.0447,0.158312 -0.13427,0.158312 -0.0635,-3.21e-4 -0.11283,-0.0461 -0.14953,-0.13845 -0.0705,-0.168674 -0.19796,-0.315801 -0.38285,-0.441785 z m 0.41554,-0.311525 c 0.18965,0.05741 0.34431,0.140217 0.46273,0.247092 0.0992,0.09026 0.149,0.178229 0.149,0.262747 -3.5e-4,0.106832 -0.0432,0.160345 -0.1294,0.160345 -0.0591,-5.15e-4 -0.10989,-0.04986 -0.15377,-0.149369 -0.0677,-0.15033 -0.19972,-0.293502 -0.39732,-0.430195 l 0.0688,-0.09062"
       id="path96" />
    <rect
       style="fill:none;fill-opacity:1;stroke:#000000;stroke-width:0.26499999;stroke-miterlimit:4;stroke-dasharray:1.58999992, 1.58999992;stroke-dashoffset:0;stroke-opacity:1"
       id="rect4489"
       width="41.38245"
       height="41.38245"
       x="26.255251"
       y="23.667179" />
    <path
       style="fill:none;stroke:#000000;stroke-width:0.22982469px;stroke-linecap:butt;stroke-linejoin:miter;stroke-opacity:1;marker-start:url(#marker5103);marker-end:url(#marker5179)"
       d="M 29.077192,26.489121 65.02318,62.435109"
       id="path4497"
       inkscape:connector-curvature="0" />
    <path
       style="fill:none;stroke:#000000;stroke-width:0.22927842px;stroke-linecap:butt;stroke-linejoin:miter;stroke-opacity:1;marker-start:url(#marker4969);marker-end:url(#marker5033)"
       d="M 29.16338,62.1415 65.023931,26.280949"
       id="path4499"
       inkscape:connector-curvature="0" />
    <path
       style="fill:none;stroke:#000000;stroke-width:0.23678496;stroke-linecap:butt;stroke-linejoin:miter;stroke-miterlimit:4;stroke-dasharray:none;stroke-opacity:1;marker-start:url(#Arrow1Lstart);marker-end:url(#Arrow1Lend)"
       d="M 28.94713,44.358404 H 64.851438"
       id="path4503"
       inkscape:connector-curvature="0" />
    <path
       style="fill:none;stroke:#000000;stroke-width:0.23639293px;stroke-linecap:butt;stroke-linejoin:miter;stroke-opacity:1;marker-start:url(#marker4871);marker-end:url(#marker4911)"
       d="M 46.946476,26.594285 V 62.069693"
       id="path4505"
       inkscape:connector-curvature="0" />
    <circle
       id="path4507"
       cx="46.94648"
       cy="44.53228"
       r="1.5"
       style="fill:#000000;stroke:none" />
    <path
       style="stroke-width:0.0016181"
       inkscape:connector-curvature="0"
       d="m 49.547599,39.419697 c 0,-0.358879 -0.02243,-0.717774 -0.179432,-1.049646 -0.20634,-0.430739 -0.574183,-0.502421 -0.762562,-0.502421 -0.269155,0 -0.596627,0.11666 -0.780524,0.533812 -0.143541,0.309542 -0.165984,0.659376 -0.165984,1.018255 0,0.336435 0.01794,0.740149 0.201857,1.081068 0.192911,0.363345 0.520348,0.453037 0.740152,0.453037 0.24223,0 0.583148,-0.09419 0.78054,-0.520332 0.143525,-0.309527 0.165953,-0.65941 0.165953,-1.013773 z m -0.946493,1.435432 c -0.174933,0 -0.439589,-0.112147 -0.520348,-0.542775 -0.04932,-0.269139 -0.04932,-0.68182 -0.04932,-0.946492 0,-0.287083 0,-0.583196 0.03586,-0.825425 0.08523,-0.533811 0.42166,-0.574103 0.533794,-0.574103 0.14804,0 0.444089,0.08074 0.52933,0.524751 0.04486,0.251291 0.04486,0.592225 0.04486,0.874777 0,0.336419 0,0.641464 -0.04934,0.928547 -0.0673,0.426142 -0.322989,0.56072 -0.524848,0.56072"
       id="path2" />
    <circle
       id="path4507-5"
       cx="67.564148"
       cy="44.358406"
       r="1.5"
       style="fill:#000000;stroke:none;stroke-width:1" />
    <circle
       id="path4507-5-5"
       cx="26.132978"
       cy="44.358406"
       r="1.5"
       style="fill:#000000;stroke:none;stroke-width:1" />
    <circle
       id="path4507-5-4"
       cx="46.946476"
       cy="23.783649"
       r="1.5"
       style="fill:#000000;stroke:none;stroke-width:1" />
    <circle
       id="path4507-5-4-8"
       cx="46.94648"
       cy="65.015236"
       r="1.5"
       style="fill:#000000;stroke:none;stroke-width:1" />
    <circle
       id="path4507-5-9"
       cx="67.564148"
       cy="65.015236"
       r="1.5"
       style="fill:#000000;stroke:none;stroke-width:1" />
    <circle
       id="path4507-5-9-6"
       cx="26.132978"
       cy="65.015236"
       r="1.5"
       style="fill:#000000;stroke:none;stroke-width:1" />
    <circle
       id="path4507-5-9-6-0"
       cx="26.132978"
       cy="23.783649"
       r="1.5"
       style="fill:#000000;stroke:none;stroke-width:1" />
    <circle
       id="path4507-5-9-6-3"
       cx="67.564148"
       cy="23.783649"
       r="1.5"
       style="fill:#000000;stroke:none;stroke-width:1" />
    <rect
       style="fill:none;fill-opacity:1;stroke:#000000;stroke-width:0.26499999;stroke-miterlimit:4;stroke-dasharray:1.58999992, 1.58999992;stroke-dashoffset:0;stroke-opacity:1"
       id="rect4489-3"
       width="41.38245"
       height="41.38245"
       x="95.103798"
       y="23.660137" />
    <path
       style="fill:none;stroke:#000000;stroke-width:0.22982469px;stroke-linecap:butt;stroke-linejoin:miter;stroke-opacity:1;marker-start:url(#marker5103-0);marker-end:url(#marker5179-9)"
       d="M 97.925744,26.48208 133.87173,62.428068"
       id="path4497-9"
       inkscape:connector-curvature="0" />
    <path
       style="fill:none;stroke:#000000;stroke-width:0.22927842px;stroke-linecap:butt;stroke-linejoin:miter;stroke-opacity:1;marker-start:url(#marker4969-3);marker-end:url(#marker5033-8)"
       d="M 98.011932,62.13446 133.87248,26.273908"
       id="path4499-3"
       inkscape:connector-curvature="0" />
    <path
       style="fill:none;stroke:#000000;stroke-width:0.23678496;stroke-linecap:butt;stroke-linejoin:miter;stroke-miterlimit:4;stroke-dasharray:none;stroke-opacity:1;marker-start:url(#Arrow1Lstart-4);marker-end:url(#Arrow1Lend-4)"
       d="M 97.795682,44.351363 H 133.69999"
       id="path4503-7"
       inkscape:connector-curvature="0" />
    <path
       style="fill:none;stroke:#000000;stroke-width:0.23639293px;stroke-linecap:butt;stroke-linejoin:miter;stroke-opacity:1;marker-start:url(#marker4871-7);marker-end:url(#marker4911-3)"
       d="M 115.79503,26.587244 V 62.062652"
       id="path4505-7"
       inkscape:connector-curvature="0" />
    <circle
       id="path4507-6"
       cx="115.79503"
       cy="44.525238"
       r="1.5"
       style="fill:#000000;stroke:none;stroke-width:1" />
    <path
       style="stroke-width:0.0016181"
       inkscape:connector-curvature="0"
       d="m 118.39615,39.412656 c 0,-0.358879 -0.0224,-0.717774 -0.17943,-1.049646 -0.20634,-0.430739 -0.57419,-0.502421 -0.76256,-0.502421 -0.26916,0 -0.59663,0.11666 -0.78052,0.533812 -0.14355,0.309542 -0.16599,0.659376 -0.16599,1.018255 0,0.336435 0.0179,0.740149 0.20186,1.081068 0.19291,0.363345 0.52034,0.453037 0.74015,0.453037 0.24222,0 0.58314,-0.09419 0.78054,-0.520332 0.14352,-0.309527 0.16595,-0.65941 0.16595,-1.013773 z m -0.94649,1.435432 c -0.17494,0 -0.43959,-0.112147 -0.52035,-0.542775 -0.0494,-0.269139 -0.0494,-0.68182 -0.0494,-0.946492 0,-0.287083 0,-0.583196 0.0358,-0.825425 0.0852,-0.533811 0.42166,-0.574103 0.53379,-0.574103 0.14804,0 0.4441,0.08074 0.52934,0.524751 0.0449,0.251291 0.0449,0.592225 0.0449,0.874777 0,0.336419 0,0.641464 -0.0494,0.928547 -0.0673,0.426142 -0.323,0.56072 -0.52485,0.56072"
       id="path2-5" />
    <circle
       id="path4507-5-8"
       cx="136.4127"
       cy="44.351364"
       r="1.5"
       style="fill:#000000;stroke:none;stroke-width:1" />
    <circle
       id="path4507-5-5-9"
       cx="94.981529"
       cy="44.351364"
       r="1.5"
       style="fill:#000000;stroke:none;stroke-width:1" />
    <circle
       id="path4507-5-4-9"
       cx="115.79503"
       cy="23.776608"
       r="1.5"
       style="fill:#000000;stroke:none;stroke-width:1" />
    <circle
       id="path4507-5-4-8-1"
       cx="115.79503"
       cy="65.008194"
       r="1.5"
       style="fill:#000000;stroke:none;stroke-width:1" />
    <circle
       id="path4507-5-9-8"
       cx="136.4127"
       cy="65.008194"
       r="1.5"
       style="fill:#000000;stroke:none;stroke-width:1" />
    <circle
       id="path4507-5-9-6-36"
       cx="94.981529"
       cy="65.008194"
       r="1.5"
       style="fill:#000000;stroke:none;stroke-width:1" />
    <circle
       id="path4507-5-9-6-0-8"
       cx="94.981529"
       cy="23.776608"
       r="1.5"
       style="fill:#000000;stroke:none;stroke-width:1" />
    <circle
       id="path4507-5-9-6-3-5"
       cx="136.4127"
       cy="23.776608"
       r="1.5"
       style="fill:#000000;stroke:none;stroke-width:1" />
  </g>
</svg>
